<svg xmlns="http://www.w3.org/2000/svg" width="100" height="100" fill="none" viewBox="0 0 100 100" id="address"><path fill="#EAEAEA" d="M35.809 53H27.437C26.61 53 25.869 53.511 25.574 54.286L14.134 84.286C13.634 85.595 14.598 87 15.997 87H84.004C85.402 87 86.366 85.595 85.867 84.286L74.427 54.286C74.131 53.511 73.39 53 72.563 53H64.191"></path><path fill="#1F212B" d="M62.5 83H19.631C19.467 83 19.313 82.919 19.219 82.784 19.126 82.649 19.106 82.476 19.164 82.322L28.697 57.322C28.771 57.128 28.957 57 29.164 57H33.5C33.776 57 34 57.224 34 57.5 34 57.776 33.776 58 33.5 58H29.509L20.357 82H62.5C62.776 82 63 82.224 63 82.5 63 82.776 62.776 83 62.5 83zM78.463 78C78.262 78 78.071 77.877 77.996 77.678L70.491 58H66.5C66.224 58 66 57.776 66 57.5 66 57.224 66.224 57 66.5 57H70.836C71.043 57 71.23 57.128 71.303 57.322L78.93 77.322C79.029 77.58 78.9 77.869 78.641 77.968 78.582 77.99 78.522 78 78.463 78zM69.5 83H64.5C64.224 83 64 82.776 64 82.5 64 82.224 64.224 82 64.5 82H69.5C69.776 82 70 82.224 70 82.5 70 82.776 69.776 83 69.5 83zM72.5 83H71.5C71.224 83 71 82.776 71 82.5 71 82.224 71.224 82 71.5 82H72.5C72.776 82 73 82.224 73 82.5 73 82.776 72.776 83 72.5 83z"></path><path fill="#1F212B" d="M84.004 88H15.996C15.012 88 14.091 87.515 13.531 86.704C12.97 85.89 12.846 84.853 13.199 83.929L24.638 53.929C25.08 52.775 26.204 52 27.437 52H35.809V54H27.437C27.022 54 26.657 54.252 26.508 54.643L15.069 84.643C14.949 84.956 14.99 85.294 15.179 85.57C15.367 85.843 15.665 86 15.996 86H84.004C84.335 86 84.633 85.843 84.821 85.569C85.01 85.293 85.051 84.955 84.931 84.642L73.492 54.642C73.344 54.252 72.979 54 72.563 54H64.191V52H72.563C73.795 52 74.919 52.775 75.361 53.929L86.8 83.929C87.153 84.852 87.029 85.889 86.468 86.703C85.909 87.515 84.988 88 84.004 88Z"></path><path fill="#E35961" d="M71 34C71 50 50 71 50 71C50 71 29 50 29 34C29 22.402 38.402 13 50 13C61.598 13 71 22.402 71 34Z"></path><path fill="#FEFDEF" d="M50 45.5C56.3513 45.5 61.5 40.3513 61.5 34C61.5 27.6487 56.3513 22.5 50 22.5C43.6487 22.5 38.5 27.6487 38.5 34C38.5 40.3513 43.6487 45.5 50 45.5Z"></path><path fill="#1F212B" d="M50 72C49.734 72 49.48 71.895 49.293 71.707C48.424 70.838 28 50.228 28 34C28 21.869 37.869 12 50 12C62.131 12 72 21.869 72 34C72 50.228 51.576 70.838 50.707 71.707C50.52 71.895 50.266 72 50 72ZM50 14C38.972 14 30 22.972 30 34C30 47.767 46.366 65.741 50 69.562C53.632 65.741 70 47.76 70 34C70 22.972 61.028 14 50 14Z"></path><path fill="#1F212B" d="M50 46C43.383 46 38 40.617 38 34C38 27.383 43.383 22 50 22C56.617 22 62 27.383 62 34C62 40.617 56.617 46 50 46ZM50 23C43.935 23 39 27.935 39 34C39 40.065 43.935 45 50 45C56.065 45 61 40.065 61 34C61 27.935 56.065 23 50 23Z"></path><path fill="#1F212B" d="M50 50C41.178 50 34 42.822 34 34 34 25.178 41.178 18 50 18 52.32 18 54.578 18.501 56.71 19.489 56.961 19.605 57.069 19.902 56.954 20.153 56.838 20.403 56.538 20.513 56.29 20.396 54.29 19.47 52.174 19 50 19 41.729 19 35 25.729 35 34 35 42.271 41.729 49 50 49 58.138 49 64.715 42.624 64.975 34.484 64.984 34.209 65.194 33.966 65.491 34.001 65.767 34.01 65.984 34.24 65.975 34.517 65.697 43.199 58.681 50 50 50zM62.229 25C62.081 25 61.933 24.934 61.834 24.807 60.809 23.489 59.595 22.364 58.225 21.464 57.995 21.312 57.93 21.002 58.081 20.772 58.232 20.54 58.542 20.477 58.773 20.628 60.235 21.588 61.53 22.788 62.623 24.192 62.793 24.41 62.754 24.724 62.535 24.894 62.445 24.966 62.337 25 62.229 25zM64.478 29C64.277 29 64.087 28.878 64.011 28.679 63.885 28.35 63.751 28.028 63.604 27.711 63.488 27.461 63.596 27.163 63.846 27.046 64.097 26.934 64.395 27.038 64.51 27.289 64.667 27.627 64.811 27.971 64.945 28.321 65.044 28.579 64.915 28.868 64.657 28.967 64.598 28.989 64.537 29 64.478 29z"></path></svg>