<svg 
xmlns="http://www.w3.org/2000/svg" viewBox="0 0 2800 1900" id="laboratory-boy-talking-on-the-phone-and-taking-medicine-order">
<g data-name="Layer 1">
<path fill="#f4f4f4" d="M1776.8821,1273.9977c-43.89,11.5915-151.4836,31.9014-151.4836,31.9014l44.583,337.3449c-90.1565,120.1761-303.3627,188.0417-303.3627,188.0417l-50.428-70.8377-35.8646,32.9916s-46.4654-31.01-81.0426-71.7291c-.2969-2.576-.6929-5.152-.9904-7.728-15.2571-127.0122-4.5576-324.0693-.3961-387.7735,0-.6936.0985-1.3871.0985-2.0801.7928-11.889,1.288-18.5267,1.288-18.5267l-36.1614-25.165s-12.7808,5.4489-31.1092,12.3841c-36.2606,13.6722-94.1197,32.7933-115.6185,25.0659-53.79682-34.874-90.35492-93.3276-80.74512-186.3571.1984-1.7832.3967-3.6656.5945-5.4495,10.2048-83.618,196.958-421.062,245.20672-507.2554a36.81826,36.81826,0,0,1,34.3787-18.6258l59.9393,3.8634,80.1501,5.0528s345.3704-28.434,369.9404,12.88c8.9168,15.0588,24.1739,23.4804,30.3164,65.5866,5.5481,37.6478,8.1241,90.1565,10.7993,148.6101,2.3777,55.58,4.9537,116.609,9.9073,174.9634,8.8171,102.8382,21.1027,168.2265,23.2821,208.2525C1802.0466,1252.7959,1796.8946,1268.6474,1776.8821,1273.9977Z">
</path>
<path fill="#dbdbdb" d="M1518.7954,905.0478c-26.1549,7.7281-56.6697,18.5267-56.6697,18.5267s11.7898,14.3658,28.5332,40.2244c-67.1721,54.8865-167.3351,151.1855-167.3351,151.1855s-3.2696,4.756-10.5018,3.0713c-4.6562-.8913-11.0962-4.557-19.2203-14.0683-10.3034-223.5096-41.8087-351.9089-41.8087-351.9089l45.9696-17.4365-62.5153-37.3508,113.9345-106.1079a362.14537,362.14537,0,0,1,46.0694-4.0617c21.7962-.6936,48.1495.4952,71.3329,6.8361,30.4156,8.3218,55.2826,25.6597,57.0664,59.7409C1528.505,744.7471,1530.3874,865.6168,1518.7954,905.0478Z"></path>
<path fill="#444343" d="M1466.5841,593.9577l-153.7621,524.098-15.0594,51.2214-4.1609-65.2897,101.6495-516.8658C1417.0474,586.428,1443.4007,587.6168,1466.5841,593.9577Z"></path><polygon fill="#b2bfd8" points="1329.565 1215.148 1332.736 1265.081 1184.423 1295.298 1071.975 1232.288 1006.091 1184.832 1313.615 1073.671 1549.013 1176.014 1328.476 1198.999 1329.565 1215.148">
</polygon>
<path fill="#2a323f" d="M1398.9921,594.8519c77.7419,79.7159,123.1756,55.5557,137.0946,38.7178,7.667-9.0246,10.4255-20.3924,11.3561-28.6602a66.89832,66.89832,0,0,0,.4327-12.0609l-113.7669,1.5352C1423.4424,594.4727,1411.8185,594.6536,1398.9921,594.8519Z"></path><path fill="#fff" d="M1434.1086,594.3838c1.3909,1.1685,2.8151,2.2218,4.1169,3.2379,11.9615,9.2195,22.9683,15.7662,33.0407,20.0249,39.4788,17.5446,63.7731,2.5422,73.3456-8.9312a46.19234,46.19234,0,0,0,2.831-3.8059,66.89832,66.89832,0,0,0,.4327-12.0609Z"></path><path fill="#e0e1e2" d="M1438.2255,597.6217l89.7113,7.1301s-22.8494,17.8207-56.6706,12.8948c39.4788,17.5446,63.7731,2.5422,73.3456-8.9312a46.19234,46.19234,0,0,0,2.831-3.8059,66.89832,66.89832,0,0,0,.4327-12.0609l-113.7669,1.5352C1435.4995,595.5523,1436.9237,596.6056,1438.2255,597.6217Z">
</path>
<path fill="#a0a0a0" d="M1297.7974 1319.5066l2.7304 55.1378 2.2967 55.1298 4.3531 110.2385 4.2436 110.2258 4.7911 110.2525c-2.3232-18.2607-4.2218-36.5734-6.0284-54.8945-1.714-18.3297-3.0202-36.6871-4.4698-55.0397-2.7051-36.7168-4.4372-73.4879-5.9577-110.2609-1.3007-36.7821-2.345-73.572-2.6197-110.3759l-.2293-55.2036C1297.1464 1356.3111 1297.1918 1337.9101 1297.7974 1319.5066zM1184.4013 720.5437c4.6967 47.3813 7.144 94.8468 9.0408 142.3329 1.6728 47.4945 2.7806 95.0102 1.6202 142.6106-4.7143-47.3808-7.1598-94.8463-9.0408-142.3329C1184.3644 815.6592 1183.2584 768.1435 1184.4013 720.5437zM1141.7566 1078.6617c-12.7822 6.9141-25.8433 13.1501-39.0031 19.1476-13.141 6.0405-26.4477 11.6787-39.7866 17.2394-13.3914 5.4318-26.8186 10.7778-40.4097 15.7232-13.5736 4.989-27.24763 9.7335-41.20242 13.795 12.77859-6.9226 25.83852-13.1628 38.99832-19.1579 13.1428-6.0387 26.4496-11.6774 39.7914-17.2291 13.3951-5.424 26.8223-10.7699 40.414-15.7135C1114.1333 1087.4798 1127.8055 1082.7316 1141.7566 1078.6617z"></path>
<path d="M1275.7686 604.0628l80.1501 5.0528s345.3704-28.434 369.9404 12.88c8.9168 15.0588 24.1739 23.4804 30.3164 65.5866 5.5481 37.6478 8.1241 90.1565 10.7993 148.6101C1426.8556 922.7824 1310.4443 703.632 1275.7686 604.0628zM1776.8821 1273.9977c-43.89 11.5915-151.4836 31.9014-151.4836 31.9014l44.583 337.3449c-90.1565 120.1761-303.3627 188.0417-303.3627 188.0417l-50.428-70.8377-35.8646 32.9916s-46.4654-31.01-81.0426-71.7291c-.2969-2.576-.6929-5.152-.9904-7.728 137.1178-58.4535 303.561-161.9848 282.6567-318.9173-118.6904-10.7001-261.158-60.9304-283.0528-68.8562-1.8824-.5944-2.8735-.9905-2.8735-.9905l2.972-1.0896 135.6316-49.2398 466.537-55.4809C1802.0466 1252.7959 1796.8946 1268.6474 1776.8821 1273.9977z" style="mix-blend-mode:soft-light"></path>
<path fill="#2a323f" d="M1377.4302,185.5466c-34.9589,55.0537-44.2519,122.5312-27.645,186.919a407.098,407.098,0,0,0,11.9498,39.1242c2.1357-12.4331,4.2606-24.3663,6.2515-35.8364,10.9025-61.0911,19.6324-105.4888,24.7093-119.8089,5.7684-16.2518,14.8343-33.7819,22.0694-46.8308,3.1226-5.73,5.9764-10.5346,8.0279-13.9447,2.2066-3.4888,3.455-5.5044,3.455-5.5044s204.341,12.261,349.1222,131.9346c-30.4539,18.8228-91.7868,72.1738-78.439,189.6267l-21.0626,39.2139a192.7017,192.7017,0,0,0,57.3168-14.2101c166.8504-70.0375,138.6455-167.4123,99.6098-209.4562,17.6319-81.5795-38.8494-198.4399-161.6334-241.5633-122.7838-43.124-233.1879,1.0082-343.4898,100.84C1342.3812,184.4019,1360.6518,184.6938,1377.4302,185.5466Z"></path><path fill="#f5be9b" d="M1370.9145,414.9993s-19.9611-68.4409-54.6499-16.6244-4.6816,139.3578,44.134,84.4612S1370.9145,414.9993,1370.9145,414.9993Z"></path><path fill="#dd8f6c" d="M1316.4507,435.0865a28.40318,28.40318,0,0,1,15.719-5.6575,31.02836,31.02836,0,0,1,17.1801,3.7959,24.43541,24.43541,0,0,1,11.583,14.5143,22.634,22.634,0,0,1-1.6656,17.047c-3.2477-4.9339-5.2552-9.1787-8.1623-12.2425a30.20829,30.20829,0,0,0-8.6808-7.2578,74.286,74.286,0,0,0-11.5328-5.0307C1326.5261,438.6827,1321.8221,437.1732,1316.4507,435.0865Z"></path><path d="M1370.9145,414.9993s-19.9611-68.4409-54.6499-16.6244-4.6816,139.3578,44.134,84.4612S1370.9145,414.9993,1370.9145,414.9993Z" style="mix-blend-mode:soft-light" opacity=".5"></path>
<path fill="#f5be9b" d="M1682.1318,525.5097s88.9718-54.5634,91.2365,28.7525-117.7941,149.332-137.0607,50.8873S1682.1318,525.5097,1682.1318,525.5097Z"></path><path fill="#dd8f6c" d="M1740.3529,592.4039c-8.8798-1.5894-16.5121-3.586-23.8607-5.4252-7.3025-1.8036-14.1907-3.6307-20.7932-4.5746a84.683,84.683,0,0,0-19.4314-.824c-6.7544.4538-13.4326,2.9283-22.2737,5.6932a34.03659,34.03659,0,0,1,16.9859-21.0758,45.73272,45.73272,0,0,1,27.9609-4.2182,57.29062,57.29062,0,0,1,24.643,10.4233C1730.591,577.6185,1736.7041,584.0201,1740.3529,592.4039Z"></path><path d="M1682.1318,525.5097s88.9718-54.5634,91.2365,28.7525-117.7941,149.332-137.0607,50.8873S1682.1318,525.5097,1682.1318,525.5097Z" style="mix-blend-mode:soft-light" opacity=".5"></path>
<path fill="#f5be9b" d="M1392.6626,255.98c-5.0121,14.2488-13.791,58.6473-24.6306,119.7717-2.0621,11.4695-4.1685,23.3522-6.2945,35.8718-.6653,4.1529-1.4598,8.3658-2.1258,12.5191-3.4623,19.9651-7.0234,41.0743-10.7067,63.1035-6.298,37.0501-12.8611,76.5769-19.4779,116.8355-.1387.3779-.1575,1.0144-.3308,1.487a48.558,48.558,0,0,0,12.0853,40.1475c78.8101,87.4681,150.4825,91.7733,198.1424,78.797a167.11222,167.11222,0,0,0,30.8731-11.9479c18.4705-9.4193,28.9496-18.9815,28.9496-18.9815l40.5155-75.6566,36.2258-67.4707,6.8835-12.9189,8.9075-16.6808.3374-.627.2584-.1193,4.662-8.9081c-13.3476-117.401,47.9404-170.7445,78.4456-189.5841-3.9131-3.3659-7.9902-6.5772-12.1018-9.6944-4.4209-3.4448-8.9704-6.83-13.5901-10.0256-7.297-5.2513-14.6037-10.1834-22.0149-14.8324-4.9716-3.1107-9.8842-6.093-14.8312-8.9799-4.225-2.5154-8.5449-5.0649-12.934-7.4258-3.6333-2.0836-7.2408-3.943-10.9435-5.8374-5.6779-2.941-11.2013-5.718-16.8541-8.435-3.4188-1.7902-6.847-3.2625-10.2406-4.8288a7.53334,7.53334,0,0,0-1.9159-.9175c-4.1492-1.8441-8.0759-3.7132-12.2598-5.4627-4.2447-1.8785-8.6179-3.6974-12.9664-5.2926-4.7172-2.0518-9.5036-3.9149-14.1355-5.614-3.8754-1.4216-7.7168-2.938-11.4383-4.1958-4.288-1.4656-8.4474-2.9914-12.5466-4.3884-93.0679-31.3511-170.4002-36.0162-170.4002-36.0162s-1.1754,2.0354-3.4129,5.5048c-2.1088,3.4093-4.9269,8.1668-7.9967,13.9049C1407.5287,222.1795,1398.4383,239.6514,1392.6626,255.98Z"></path><ellipse cx="1572.682" cy="467.204" rx="53.265" ry="25.02" transform="rotate(-74.826 1572.682 467.204)" style="mix-blend-mode:soft-light" opacity=".5">
</ellipse><ellipse cx="1567.936" cy="484.528" fill="#2a323f" rx="30.476" ry="16.163" transform="rotate(-75.062 1567.936 484.528)"></ellipse><path fill="#fff" d="M1561.2953 472.2064c-1.023 3.8161.2072 7.4684 2.7476 8.1578s5.4292-1.8454 6.4522-5.6615-.2072-7.4684-2.7477-8.1577S1562.3182 468.3904 1561.2953 472.2064zM1567.7007 485.8553c-.4893 1.8251.0991 3.5719 1.3141 3.9016s2.5966-.8826 3.0858-2.7077-.0991-3.5718-1.3141-3.9015S1568.1899 484.0303 1567.7007 485.8553z"></path><path fill="#2a323f" d="M1616.0617,424.4908c-7.9155-5.6865-13.8156-11.5226-19.9801-17.0978-3.0572-2.7897-6.1095-5.4427-9.2659-8.1859-3.18-2.7589-6.5499-5.2001-10.3997-8.4019a25.86687,25.86687,0,0,1,14.4346,1.2839,39.08293,39.08293,0,0,1,12.2461,7.622,44.53823,44.53823,0,0,1,8.7486,11.1559A32.787,32.787,0,0,1,1616.0617,424.4908Z"></path><ellipse cx="1434.066" cy="425.452" rx="48.291" ry="22.684" transform="rotate(-74.826 1434.066 425.453)" style="mix-blend-mode:soft-light" opacity=".5"></ellipse><path fill="#2a323f" d="M1415.6206,437.3215c-3.9511,14.7392-.8223,28.4057,6.9884,30.5251s17.3456-8.1109,21.2967-22.8501.8222-28.4057-6.9885-30.5251S1419.5716,422.5824,1415.6206,437.3215Z"></path><path fill="#fff" d="M1423.7424,429.9882c-.9274,3.4597.1879,6.771,2.4911,7.396s4.9222-1.6731,5.8496-5.1328-.1879-6.771-2.4911-7.396S1424.6698,426.5285,1423.7424,429.9882Z"></path><ellipse cx="1431.544" cy="442.904" fill="#fff" rx="3.102" ry="2.067" transform="rotate(-75.135 1431.544 442.904)"></ellipse><path fill="#2a323f" d="M1467.5654,373.3892c-8.8417.438-16.3578-.4471-23.8982-1.0419l-11.2043-.7357c-3.7971-.1669-7.5609-.0889-12.1004-.1343a22.96836,22.96836,0,0,1,11.0392-7.2076,36.32511,36.32511,0,0,1,13.0351-1.3219,41.36356,41.36356,0,0,1,12.4652,3.1201A30.37963,30.37963,0,0,1,1467.5654,373.3892Z">
</path><path fill="#0e1319" d="M1773.8165 320.2511a261.05865 261.05865 0 00-1.9845-36.4693 295.38415 295.38415 0 00-6.1433-35.8564 292.06381 292.06381 0 00-24.9365-67.8703 266.82512 266.82512 0 00-18.9987-30.7537 281.64015 281.64015 0 00-23.1849-27.7969 248.055 248.055 0 00-27.0788-24.1977c-4.649-3.929-9.7075-7.3044-14.6511-10.8716-4.9938-3.4891-10.2478-6.5874-15.3372-9.9985a251.25849 251.25849 0 0131.7888 18.4203c10.2121 6.8634 19.5506 14.9398 28.6446 23.2666a237.2968 237.2968 0 0124.5528 27.702 261.02277 261.02277 0 0119.7557 31.3538 256.89832 256.89832 0 0124.0906 69.7598C1774.8444 271.1181 1776.6564 295.9112 1773.8165 320.2511zM1716.3809 280.0875c-4.41-23.4045-13.0121-45.6964-23.926-66.5646a296.98119 296.98119 0 00-40.0631-57.9535c-3.8915-4.4064-8.1393-8.4969-12.1905-12.7647-2.0704-2.0909-4.0506-4.2769-6.1942-6.2922l-6.6534-5.8124c-4.4499-3.8564-8.7443-7.9136-13.3279-11.6169q-7.1295-5.2365-14.155-10.6356l-7.0757-5.346-7.4962-4.7361-15.0123-9.503c-10.151-6.1149-20.858-11.2648-31.205-17.2345q8.2194 3.45765 16.3978 7.1005c5.404 2.5126 11.0519 4.5927 16.281 7.475l15.6089 8.8369 7.8144 4.4329 7.4187 5.0628q7.42185 5.07045 14.7752 10.2702c4.7542 3.6513 9.2295 7.668 13.8622 11.4905l6.859 5.8445c2.2035 2.0383 4.2467 4.2502 6.3775 6.3678 4.1722 4.3241 8.5483 8.4648 12.5517 12.9456a258.60467 258.60467 0 0139.6795 59.953c2.7244 5.3538 4.8934 10.9581 7.0927 16.5364 2.3735 5.5074 3.9761 11.3126 5.9068 16.9725C1712.8252 256.4707 1715.6392 268.1663 1716.3809 280.0875zM1619.9308 232.1701c-7.9548-16.2889-18.758-30.8075-30.3447-44.421a306.48527 306.48527 0 00-38.6758-37.1021c-7.1628-5.3587-14.112-11.021-21.7153-15.7795-3.7469-2.4503-7.3383-5.1584-11.2195-7.4042l-11.586-6.8543c-3.7959-2.4188-7.8054-4.442-11.8082-6.4924l-11.9642-6.2795c-8.0546-4.0506-16.4008-7.4877-24.5389-11.5492 8.6209 2.7407 17.2387 5.6339 25.7737 8.771l12.5233 5.41a124.4 124.4 0 0112.3218 5.8856c16.3397 8.1212 31.6037 18.297 46.0848 29.4517a245.8683 245.8683 0 0138.5336 38.8875C1604.5022 199.0877 1614.1825 214.9174 1619.9308 232.1701z"></path><path fill="#3f4854" d="M1804.3941 317.1085s.3794-104.6837-91.6008-193.7151C1814.3982 197.1571 1802.3062 270.3866 1804.3941 317.1085zM1761.2491 285.8115s-11.886-144.9145-157.6259-205.5551c73.0515 42.053 102.418 95.6745 102.418 95.6745s-52.8826-66.7759-134.3293-97.8081c117.6114 74.1268 137.3489 136.817 152.5512 196.6669-5.2358-60.5678-27.4821-96.0863-27.4821-96.0863s30.9024 39.3273 43.8958 103.4362c1.2625-48.1821-25.9848-95.6401-25.9848-95.6401S1744.4311 224.2508 1761.2491 285.8115z"></path><path fill="#3f4854" d="M1690.4646,241.4548S1662.9109,126.461,1539.6568,94.4129c63.2382,25.4234,93.2507,65.1229,93.2507,65.1229s-50.3217-47.5761-118.845-63.1924c102.6152,46.0875,126.1193,94.1676,145.6687,140.485-11.7289-48.0318-33.8267-74.0094-33.8267-74.0094s29.4442,28.0474,47.7731,78.0366c-5.0226-38.8293-32.5826-73.8221-32.5826-73.8221S1669.4189,193.9483,1690.4646,241.4548Z"></path><path fill="#3f4854" d="M1634.0634 224.5533s-55.0169-88.6178-149.0126-124.6189C1550.3603 118.1671 1597.1364 158.8441 1634.0634 224.5533zM1586.1505 210.2753s-115.5088-43.7145-223.8708-35.7091c34.282-12.7972 122.1686.4848 122.1686.4848s-56.6534-14.4239-116.2915-7.302c70.0939-42.1151 151.6486-45.1646 208.8337 21.3568-70.5917-53.9206-144.5577-40.0045-144.5577-40.0045S1527.5986 150.7226 1586.1505 210.2753zM1808.2262 338.3294s-20.6711 63.9116 23.1871 110.173c-27.9422-17.3417-33.0813-38.5424-33.0813-38.5424s-1.5157 35.1988 26.4196 61.5535C1762.9976 421.1486 1807.093 348.2361 1808.2262 338.3294z"></path><path fill="#3f4854" d="M1781.6139,385.3089c.4848-1.0739-22.2988,56.0506,19.7133,95.2055C1752.7215,470.1278,1767.103,417.4547,1781.6139,385.3089Z"></path><path fill="#3f4854" d="M1762.4976 424.3739s-24.5833 38.4729 4.6145 75.4483C1728.137 477.1437 1751.0921 443.6543 1762.4976 424.3739zM1405.1882 203.883s-46.6169 47.1647-48.205 129.0563C1339.9995 276.2465 1380.8804 217.859 1405.1882 203.883z"></path><path fill="#fad9b9" d="M1442.0575,537.062c-.3036,3.8051,3.101,7.2073,7.9306,10.2802,17.6848-5.0345,15.357-19.0486,10.8779-29.305C1451.9327,523.1662,1442.7089,530.2189,1442.0575,537.062Z"></path><path fill="#dd8f6c" d="M1476.9608,509.7645c-6.8488,4.3549-13.5228,8.8205-19.8833,13.4398a55.3417,55.3417,0,0,0-8.4715,7.6124c-2.3729,2.5828-4.1038,6.1294-3.2695,7.7654.7266,2.2555,3.9635,4.897,7.0418,6.7344a93.48843,93.48843,0,0,0,10.3416,5.274c7.2311,3.189,14.7303,6.0308,22.2749,9.0692a102.71667,102.71667,0,0,1-23.9859-4.5419,68.25487,68.25487,0,0,1-11.5879-4.7276,29.98573,29.98573,0,0,1-5.4482-3.7293,14.952,14.952,0,0,1-4.4887-6.0357,9.01347,9.01347,0,0,1-.3872-4.4099,12.609,12.609,0,0,1,1.1671-3.7118,21.34955,21.34955,0,0,1,4.0222-5.6412,47.83125,47.83125,0,0,1,10.1231-7.6735A92.29549,92.29549,0,0,1,1476.9608,509.7645Z"></path><path fill="#fad9b9" d="M1359.5652 424.1378c-9.1938 53.8093-19.5625 115.8135-30.1329 179.8937C1416.0618 592.3991 1391.9568 520.3734 1359.5652 424.1378zM1367.9865 375.7534c140.4023-35.1928 78.9158-128.7884 46.7787-166.6397-7.2351 13.0489-16.301 30.579-22.0694 46.8308C1387.6189 270.2646 1378.889 314.6623 1367.9865 375.7534z"></path><path fill="#bbe1ea" d="M1348.905,487.2461c-6.298,37.0501-12.8611,76.5769-19.4779,116.8355-.1387.3779-.1575,1.0144-.3308,1.487a48.558,48.558,0,0,0,12.0853,40.1475c78.8101,87.4681,150.4825,91.7733,198.1424,78.797,24.4594-46.7975,53.8409-136.8339,64.6475-171.2653,2.7778-8.7411,4.3316-13.855,4.3316-13.855s-1.005-.476-2.8263-1.3588c-17.4654-8.2298-112.5198-52.0001-175.9458-55.1035C1400.8617,481.8519,1369.7816,484.7153,1348.905,487.2461Z"></path><polygon fill="#bbe1ea" points="1574.456 544.244 1580.706 557.905 1603.971 553.248 1682.772 537.538 1691.679 520.857 1605.477 538.034 1574.456 544.244"></polygon><path d="M1645.0371,337.1732c34.7579,117.9264-65.7785,461.0644-294.59,303.1546,40.2077,67.4002,137.2453,88.2745,219.6924,72.2534,18.5561-9.4237,29.0407-18.9915,29.0407-18.9915l40.5184-75.6399,52.5269-97.8216,4.7058-8.9023c-13.3478-117.4529,47.9851-170.8039,78.439-189.6267-3.9611-3.3164-7.9555-6.5178-12.1062-9.6392-4.4506-3.4624-8.9345-6.8096-13.5755-10.0771q-10.9155-7.77765-22.0332-14.8601c-4.9521-3.1095-9.8153-6.0666-14.8345-8.9444-4.1953-2.5073-8.5134-5.0504-12.8984-7.3627-3.6505-2.0926-7.2118-4.0336-10.9291-5.8953-5.6646-2.9451-11.2404-5.7372-16.8502-8.4145-3.4723-1.7887-6.889-3.3092-10.3063-4.8307a6.13272,6.13272,0,0,0-1.8584-.9304c-4.1178-1.8553-8.1136-3.6749-12.265-5.4144-4.2411-1.892-8.6374-3.7053-12.9448-5.3655-4.7307-2.0379-9.5274-3.8446-14.2025-5.6144-3.8513-1.3992-7.669-2.9143-11.4314-4.1605-4.2182-1.5086-8.4364-3.0172-12.5663-4.3737-93.0658-31.3773-170.3204-36.0517-170.3204-36.0517s-1.2484,2.0156-3.455,5.5044C1469.7242,206.2644,1615.0204,235.4879,1645.0371,337.1732Z" style="mix-blend-mode:soft-light" opacity=".5"></path><path fill="#2edcd8" d="M1770.4421,621.1037c-5.8456,11.1953-18.0314,33.586-34.7748,59.9393-63.7042,100.4606-171.0008,165.6511-289.7898,172.388-2.3776.1977-4.557.2969-6.4394.3961a30.44885,30.44885,0,0,1-17.9322-5.0529,390.64357,390.64357,0,0,1-62.2184-52.3104,20.55622,20.55622,0,0,1,9.8081-34.3788c3.5665-.8913,7.4305-1.8824,11.4929-2.7738,31.1086-7.8272,74.2059-19.3194,115.7177-32.6941a20.78112,20.78112,0,0,1,21.0035,5.0523c18.1306,18.0314,27.2452,22.0937,27.2452,22.0937s62.9113-21.301,109.9712-92.5348c-.4952-20.706-6.2417-39.2327-10.7986-50.7255a20.14448,20.14448,0,0,1,5.0522-22.4899c12.5825-11.6906,34.3788-32.2974,55.7784-55.0848,4.4584-4.6561,8.8176-9.4115,13.1769-14.1674,9.016-10.0065,25.5611-8.8177,32.3972,2.7743,17.3379,29.1276,22.2915,66.4779,23.6787,83.2213A31.2065,31.2065,0,0,1,1770.4421,621.1037Z"></path><path d="M1770.4421,621.1037c-5.8456,11.1953-18.0314,33.586-34.7748,59.9393-63.7042,100.4606-171.0008,165.6511-289.7898,172.388-2.3776.1977-4.557.2969-6.4394.3961a30.44885,30.44885,0,0,1-17.9322-5.0529,390.64357,390.64357,0,0,1-62.2184-52.3104,20.55622,20.55622,0,0,1,9.8081-34.3788c3.5665-.8913,7.4305-1.8824,11.4929-2.7738,50.9233,28.5332,105.3151,42.7998,158.4183,28.1365,143.062-39.7285,164.2633-182.493,165.5513-254.5196,4.4584-4.6561,8.8176-9.4115,13.1769-14.1674,9.016-10.0065,25.5611-8.8177,32.3972,2.7743,17.3379,29.1276,22.2915,66.4779,23.6787,83.2213A31.2065,31.2065,0,0,1,1770.4421,621.1037Z" style="mix-blend-mode:soft-light" opacity=".5"></path><path d="M1644.4207 950.2429s-67.1976 216.4453-315.9451 248.7562l315.9451-32.9915zM1184.6727 727.7968s-35.9189 304.5823-195.9427 413.7397c194.7021-79.836 206.3325-85.6511 206.3325-85.6511l-1.1994-82.4559zM1132.013 1292.8213c-36.2606 13.6722-94.1197 32.7933-115.6185 25.0659-53.79682-34.874-90.35492-93.3276-80.74512-186.3571l70.44112 53.3016 48.051 34.5765z" style="mix-blend-mode:soft-light"></path><path fill="#f5be9b" d="M1335.8071,1312.1408c-94.7142,12.3842-150.6909,17.3378-165.4527,9.0154-14.7619-8.2227-118.2937-88.8686-118.2937-88.8686-16.2482-12.5825-7.133-15.3562,11.8889-13.2761,30.614,3.2696,86.8876,19.0226,104.2255,26.3539,28.1365,11.8889,43.5919,19.9138,82.3299,18.9227-1.1888-12.1858-14.9601-35.8645-22.2915-42.4031-7.2327-6.5391-56.868-8.2232-67.0729-35.3692s0-14.7619,35.8646-13.0778,60.0384-5.3498,77.7723,0c4.2607,1.288,9.7096,4.3592,15.3569,8.3224,17.7339,11.9875,38.3414,32.0997,38.3414,32.0997a15.27675,15.27675,0,0,1,1.0896,1.288Z"></path><path d="M1335.8071,1312.1408c-94.7142,12.3842-150.6909,17.3378-165.4527,9.0154-14.7619-8.2227-118.2937-88.8686-118.2937-88.8686-16.2482-12.5825-7.133-15.3562,11.8889-13.2761,69.4506,40.7197,97.191,57.2647,186.5554,45.2766,93.327-12.4833,44.0872-76.881,39.6294-82.5277,17.7339,11.9875,38.3414,32.0997,38.3414,32.0997a15.27675,15.27675,0,0,1,1.0896,1.288Z" style="mix-blend-mode:soft-light" opacity=".5"></path><path fill="#a0a0a0" d="M1625.3989,1305.8992l-71.6396,11.7131-71.674,11.473-143.4389,22.3397-3.3778.5257-.233-3.4413-10.1146-149.27-.2324-3.4238,3.4184-.36,78.9778-8.3208,79.0099-8.0159c52.6802-5.2806,105.3276-10.8668,158.041-15.8219l-2.4406,2.7099,1.0128-115.6183,1.7128-115.6183,1.7134,115.6183,1.0122,115.6183.0212,2.4261-2.4631.2856c-52.5954,6.0938-105.2562,11.5631-157.8964,17.2309l-78.9651,8.4491-78.9972,8.1442,3.1848-3.7832,9.3034,149.3354-3.6096-2.9144,143.7747-20.0642,71.9324-9.7287Z"></path><path fill="#dd3c17" d="M1272.7637,859.8237l18.3931,166.7196-25.1112,2.7704L1247.6524,862.594a12.63192,12.63192,0,0,1,25.1113-2.7703Z"></path><path fill="#444343" d="M1272.7637,859.8237l3.7916,34.368-25.1113,2.7703-3.7916-34.368a12.63192,12.63192,0,0,1,25.1113-2.7703Z"></path><path fill="#f5be9b" d="M1350.1729,1089.5225l-36.5581-15.8515-141.0805,50.9239c-2.1799-2.9721-11.2945-16.4466-18.9234-28.1371-6.4394-9.6099-11.8889-17.8331-11.8889-17.8331s42.2054-66.3794,64.4969-87.6798c22.2915-21.301,30.0195-24.2731,56.1745-2.8735a195.5973,195.5973,0,0,1,15.9512,15.3569C1307.7692,1034.3391,1350.1729,1089.5225,1350.1729,1089.5225Z"></path><path d="M1350.1729,1089.5225l-36.5581-15.8515-141.0805,50.9239c-2.1799-2.9721-11.2945-16.4466-18.9234-28.1371,96.9933-9.709,121.6625-55.2826,124.7337-93.0295C1307.7692,1034.3391,1350.1729,1089.5225,1350.1729,1089.5225Z" style="mix-blend-mode:soft-light" opacity=".5"></path><path fill="#232222" d="M1375.2113,818.6643c-5.4277,18.7053-7.9488,38.4071-6.0744,57.7175a79.9263,79.9263,0,0,0,7.5778,27.7764c1.8871,4.4347,4.8293,8.2893,7.6456,12.1203l4.9025,5.2298c1.6233,1.7618,3.5896,3.3596,5.251,5.1729,6.8899,7.043,12.9086,15.2924,16.2023,24.8602,3.318,9.4098,3.753,20.5639-1.645,29.8001a15.59625,15.59625,0,0,1-5.8118,5.8747,5.769,5.769,0,0,1-8.5985-3.1666c-2.0365-5.3871-1.6868-10.4868-1.1465-15.5502a45.37176,45.37176,0,0,1,4.3694-14.7044,23.62788,23.62788,0,0,1,4.8051-6.4985,14.07866,14.07866,0,0,1,7.8029-3.7287c5.9715-.7036,11.5927,2.5429,14.9088,6.7048,3.5164,4.0869,5.6521,8.8067,7.4805,13.5246a97.071,97.071,0,0,1,5.6097,29.4819,82.774,82.774,0,0,1-.72,15.1267c-.7823,5.0325-1.9959,10.2006-5.2116,14.9712a13.61046,13.61046,0,0,1-7.2675,5.5389l-2.4019.4302-2.2325.0344a9.78306,9.78306,0,0,1-5.0168-1.5899,7.51168,7.51168,0,0,1-3.0784-5.0731,13.07261,13.07261,0,0,1,.288-4.7676,29.93662,29.93662,0,0,1,3.0427-7.5663,62.55554,62.55554,0,0,1,9.1291-12.398,44.04258,44.04258,0,0,1,12.4295-9.7221c2.4987-1.092,5.7712-2.4854,9.8255-.778,3.3052,1.7267,4.7627,3.7735,6.5608,5.7791a91.17373,91.17373,0,0,1,8.4237,12.6769,174.43033,174.43033,0,0,1,12.3,27.2162c3.1812,9.4619,6.0532,19.1518,5.957,29.8921a29.50226,29.50226,0,0,1-1.305,8.3184,16.12746,16.12746,0,0,1-5.5946,7.792,16.76182,16.76182,0,0,1-9.1443,2.699,26.004,26.004,0,0,1-8.6064-1.3153,12.33789,12.33789,0,0,1-7.5445-7.1029,15.10694,15.10694,0,0,1,.0332-9.8116,31.24173,31.24173,0,0,1,9.497-13.7303,31.82165,31.82165,0,0,1,14.8411-7.4804,23.64937,23.64937,0,0,1,17.0258,2.9851c5.1269,3.1655,8.3577,7.1768,11.6024,11.0918,3.1625,3.9738,6.0145,8.0837,8.7486,12.2529a296.60676,296.60676,0,0,1,26.7944,52.9717,161.58776,161.58776,0,0,1,8.4775,28.8624,52.9439,52.9439,0,0,1,.8011,15.9132c-.5167,2.8393-1.0056,5.8426-3.0542,8.7746-1.8773,2.823-5.2848,5.3901-8.6656,5.8444a22.67874,22.67874,0,0,1-9.1225.1821,14.83991,14.83991,0,0,1-5.0204-2.0098,11.21414,11.21414,0,0,1-3.8976-4.7119,14.24121,14.24121,0,0,1-.0562-10.4184,26.05228,26.05228,0,0,1,4.344-7.7394,34.481,34.481,0,0,1,29.9956-12.3593,42.35606,42.35606,0,0,1,15.6161,4.7215,51.82088,51.82088,0,0,1,12.7175,9.8092,122.47385,122.47385,0,0,1,17.8051,24.623,228.24834,228.24834,0,0,1,22.2314,55.3731,138.40447,138.40447,0,0,1,4.612,29.9532,57.50037,57.50037,0,0,1-1.6172,15.9404,26.21367,26.21367,0,0,1-3.6815,8.1405l-1.4479,1.9355a25.14291,25.14291,0,0,1-1.8568,1.7158,15.89261,15.89261,0,0,1-4.3349,2.702,24.13769,24.13769,0,0,1-4.828,1.3293c-1.4339.1095-2.7668.274-4.237.2631a19.64061,19.64061,0,0,1-9.4915-2.0516,11.4726,11.4726,0,0,1-4.5255-4.2896,11.69944,11.69944,0,0,1-1.5217-6.0138,18.61426,18.61426,0,0,1,3.0257-9.3929,33.27651,33.27651,0,0,1,45.2729-10.632,54.78565,54.78565,0,0,1,12.2274,10.2744,148.57889,148.57889,0,0,1,17.9642,24.2824c10.2387,17.148,18.6243,35.3337,23.2188,55.1637a74.0961,74.0961,0,0,1,1.8804,15.4963c-.0678,5.2425-.5905,11.4912-5.3998,16.8764a15.33528,15.33528,0,0,1-9.2737,4.3338,28.91515,28.91515,0,0,1-8.7818-.6377,19.12882,19.12882,0,0,1-8.5471-4.1995,13.97327,13.97327,0,0,1-4.5516-9.4534c-.3007-6.9692,3.0257-12.2461,6.6722-16.4571a34.90677,34.90677,0,0,1,45.8367-5.2848c9.2725,6.9559,13.6619,17.1831,16.5364,26.9203a102.28464,102.28464,0,0,1,3.6597,30.2424,88.24521,88.24521,0,0,1-1.6365,15.2834c-1.1266,5.0809-2.4492,10.2278-5.8379,15.1829a14.5099,14.5099,0,0,1-7.9045,6.1028,13.39248,13.39248,0,0,1-10.246-1.6281,15.11413,15.11413,0,0,1-6.6945-7.2033,14.83353,14.83353,0,0,1-.435-9.8921c1.7696-5.9957,5.5256-10.2732,9.5732-13.8361a43.51852,43.51852,0,0,1,13.9547-7.973,35.87221,35.87221,0,0,1,16.2236-1.7358,31.1552,31.1552,0,0,1,15.1635,6.5675,43.46449,43.46449,0,0,1,10.0421,12.2946,131.06188,131.06188,0,0,1,6.945,13.366,145.8202,145.8202,0,0,1,9.4159,28.4389c2.1127,9.7729,3.3875,19.8271,2.5199,30.0857a42.66058,42.66058,0,0,1-3.9368,15.2834c-2.3408,4.8692-7.1477,9.6398-13.0938,10.6023a19.89415,19.89415,0,0,1-8.6125-.0998,11.37045,11.37045,0,0,1-7.7394-5.7289,14.15942,14.15942,0,0,1-.9765-9.0511,30.65185,30.65185,0,0,1,2.6403-7.6861,47.4665,47.4665,0,0,1,21.9477-21.4636c4.8244-2.0892,10.3325-3.3276,15.7958-2.4153a26.92879,26.92879,0,0,1,14.2572,7.1556c7.7921,7.2215,12.0459,16.8612,14.7709,26.458a90.75166,90.75166,0,0,1,3.033,29.7554,64.78255,64.78255,0,0,1-2.6681,14.8586,31.80608,31.80608,0,0,1-7.685,13.3976,18.46334,18.46334,0,0,1-6.9377,4.1552c-2.4854.8337-5.6829,1.2076-8.4727-.3436a10.44032,10.44032,0,0,1-4.7954-6.9843,23.9958,23.9958,0,0,1-.3587-7.8241,41.13868,41.13868,0,0,1,13.9565-26.2173,29.37056,29.37056,0,0,1,13.6365-6.4834,29.82751,29.82751,0,0,1,14.9422,1.1798c9.7075,2.895,17.4638,10.0923,22.8037,18.2976,5.4022,8.2778,8.9331,17.5552,11.5316,26.9693a153.11146,153.11146,0,0,1,4.9146,28.8521,152.75978,152.75978,0,0,0-5.6345-28.6464c-2.82-9.2925-6.5675-18.3902-12.0526-26.3365-5.3998-7.9118-12.9643-14.6136-22.1497-17.1522a26.91833,26.91833,0,0,0-26.2935,5.3241,38.30124,38.30124,0,0,0-12.4839,24.5172c-.4145,4.4293.3418,9.716,3.6131,11.4475,1.5519.8652,3.69.7133,5.7404-.0302a14.799,14.799,0,0,0,5.4343-3.4117c6.1948-6.513,8.1206-16.5291,8.6651-25.824a86.22216,86.22216,0,0,0-3.4111-28.1654c-2.7069-8.9857-6.8603-17.8747-13.6069-23.9037a21.609,21.609,0,0,0-11.5358-5.6938,22.87016,22.87016,0,0,0-12.7042,2.1442,41.89011,41.89011,0,0,0-18.9256,18.9661c-1.8761,3.8879-3.062,8.7086-1.5688,11.3804a5.232,5.232,0,0,0,3.7451,2.4945,13.85556,13.85556,0,0,0,5.8989-.0194c3.8649-.6903,6.7599-3.569,8.6324-7.3606a36.42719,36.42719,0,0,0,3.1043-12.9462c.6861-9.2332-.5911-18.7731-2.7135-28.0099a138.77923,138.77923,0,0,0-9.2682-26.9397,123.565,123.565,0,0,0-6.6897-12.5196,35.90137,35.90137,0,0,0-8.4303-10.2091,23.38735,23.38735,0,0,0-11.4191-4.7965,28.01585,28.01585,0,0,0-12.5995,1.5331,35.50618,35.50618,0,0,0-11.2364,6.5959c-3.2242,2.829-5.9764,6.4029-6.8864,9.8684-.8669,3.5013.0672,5.7646,3.3119,7.636,1.5295.8167,2.7976,1.1005,3.7451.7974a6.34552,6.34552,0,0,0,3.2828-2.8503c2.1823-3.1152,3.5115-7.6196,4.4178-12.0168a79.79738,79.79738,0,0,0,1.4134-13.7902,93.80212,93.80212,0,0,0-3.4383-27.653c-2.5308-8.7558-6.7157-17.3894-13.3437-22.1848a26.09286,26.09286,0,0,0-34.0026,4.1359c-2.7063,2.9858-4.6206,6.9124-4.3519,9.8479a4.82129,4.82129,0,0,0,1.6293,3.3784,10.31069,10.31069,0,0,0,4.4916,2.0541,20.70686,20.70686,0,0,0,5.7562.4374,6.18724,6.18724,0,0,0,3.7384-1.662c1.8556-1.9627,2.8545-6.1542,2.7474-10.5049a65.21246,65.21246,0,0,0-1.7207-13.5004c-4.2708-18.2346-12.4501-35.9695-22.2725-52.2167a139.38363,139.38363,0,0,0-16.8637-22.653,45.51109,45.51109,0,0,0-10.0826-8.4999,23.56268,23.56268,0,0,0-32.075,7.4308,9.2681,9.2681,0,0,0-1.5447,4.3126c.0557,1.0968.1138,1.023.9608,1.5972a10.4653,10.4653,0,0,0,4.6919.8041c.9668.0121,2.0662-.138,3.0602-.2021a19.759,19.759,0,0,0,2.1986-.6153c2.5865-1.0794,4.603-4.001,5.6914-8.0207a48.1952,48.1952,0,0,0,1.3129-13.0757,129.05791,129.05791,0,0,0-4.2091-27.8066,218.90483,218.90483,0,0,0-21.0649-53.0643c-9.3505-16.1467-21.1278-33.1072-38.772-34.6367a25.30874,25.30874,0,0,0-22.0492,8.8938,17.07181,17.07181,0,0,0-2.8315,4.9321,5.51326,5.51326,0,0,0-.2541,3.8624c.2438.6371.8101,1.1719,2.4291,1.5113a14.24079,14.24079,0,0,0,5.4034-.1319c1.5549-.176,2.2495-.9934,3.1298-2.0588.8724-1.0618,1.2808-3.0427,1.6305-4.9485a44.6918,44.6918,0,0,0-.6939-13.2117,153.21232,153.21232,0,0,0-7.9209-27.2519,288.2418,288.2418,0,0,0-25.7708-51.4459c-2.601-3.9997-5.306-7.9227-8.2077-11.5976-2.8913-3.6053-6.0665-7.2317-9.319-9.1642-6.6135-4.324-15.6367-2.0685-22.1201,3.5327a23.34844,23.34844,0,0,0-7.1628,9.8963,7.34143,7.34143,0,0,0-.2632,4.5352c.3346,1.0836,1.2536,1.8701,2.8466,2.523a18.58824,18.58824,0,0,0,5.7906.8905,9.13686,9.13686,0,0,0,4.7331-1.2239,8.45215,8.45215,0,0,0,2.768-3.9157,22.142,22.142,0,0,0,.9777-6.084c.2262-8.849-2.2761-18.3-5.228-27.273a167.41744,167.41744,0,0,0-11.4796-26.2076,84.80591,84.80591,0,0,0-7.6063-11.7755c-1.3383-1.6698-3.0826-3.52-4.1601-4.0167-.5088-.4168-2.4322-.19-4.2466.7115a38.14452,38.14452,0,0,0-10.5413,8.1605,56.38594,56.38594,0,0,0-8.3226,11.0119,24.12133,24.12133,0,0,0-2.5041,5.925,7.26,7.26,0,0,0-.2415,2.486,1.3424,1.3424,0,0,0,.5367,1.0225,3.97,3.97,0,0,0,1.8834.533l1.4254-.0085a11.96506,11.96506,0,0,1,1.2034-.1954,7.72989,7.72989,0,0,0,4.1105-3.2163c2.3287-3.3112,3.6344-7.8761,4.3501-12.4222a77.2959,77.2959,0,0,0,.8246-14.0637,91.80445,91.80445,0,0,0-4.9545-27.8671c-1.619-4.3628-3.5798-8.702-6.4331-12.058a14.32821,14.32821,0,0,0-4.7797-3.9834,10.6819,10.6819,0,0,0-5.7246-1.1871c-3.7856.3031-7.0358,3.6138-9.1406,7.5664a41.07088,41.07088,0,0,0-4.1541,13.1525c-.6468,4.5285-.8301,9.5538.5784,13.3703a2.966,2.966,0,0,0,1.1883,1.6063,2.662,2.662,0,0,0,2.0171-.2995,12.0241,12.0241,0,0,0,4.3767-4.387c4.7609-7.7267,4.7814-17.9866,1.8023-26.8301-2.9041-9.013-8.5065-17.0821-15.0879-24.0592-1.6039-1.8174-3.4226-3.3397-5.0767-5.1946l-5.0041-5.5456c-2.863-4.0343-5.8221-8.0976-7.6874-12.7024a81.16572,81.16572,0,0,1-7.2015-28.523C1366.2576,856.9081,1369.3117,837.2365,1375.2113,818.6643Z"></path></g></svg>