<svg xmlns="http://www.w3.org/2000/svg" width="3000" height="3000" fill="none" viewBox="0 0 3000 3000" id="medicine"><g clip-path="url(#clip0_101_37303)"><path fill="#F1F1F1" d="M828.369 2237.5C872.164 2260.86 943.94 2356.72 974.354 2401.73C1036.4 2468.64 1165.59 2614.87 1186.03 2664.51C1211.58 2726.55 1156.84 2854.29 1069.24 2817.79C981.653 2781.3 908.661 2697.35 861.216 2635.31C813.77 2573.27 839.318 2471.08 780.924 2368.89C722.53 2266.7 773.625 2208.3 828.369 2237.5Z"></path><path fill="#F15846" d="M1090.79 2299.55C1149.19 2337.5 1171.08 2383.49 1174.73 2401.74L1251.37 2467.43L1291.52 2704.66C1242.86 2737.5 1131.67 2794.44 1076.19 2759.4C1006.85 2715.6 915.609 2562.32 937.507 2449.18C959.404 2336.04 893.711 2281.3 890.062 2149.91C886.412 2018.53 959.405 2044.07 992.251 2087.87C1025.1 2131.66 1017.8 2252.1 1090.79 2299.55Z"></path><path fill="#D05244" fill-rule="evenodd" d="M966.586 2271.47C956.356 2231.88 952.274 2192.6 951.652 2168.36L967.156 2167.96C967.751 2191.17 971.698 2229.26 981.601 2267.59C991.561 2306.13 1007.25 2343.73 1030.58 2367.06C1047.15 2383.63 1058.58 2404.8 1068.11 2428.56C1075.48 2446.94 1081.89 2467.36 1088.62 2488.79C1090.55 2494.95 1092.51 2501.19 1094.53 2507.49C1112.69 2564.27 1136.04 2627.84 1187.93 2688.67L1176.13 2698.74C1122.18 2635.49 1098.08 2569.5 1079.76 2512.22C1077.67 2505.69 1075.66 2499.3 1073.7 2493.05C1067.01 2471.74 1060.84 2452.1 1053.71 2434.33C1044.54 2411.45 1034.06 2392.47 1019.61 2378.02C993.31 2351.72 976.76 2310.84 966.586 2271.47Z" clip-rule="evenodd"></path><path fill="#fff" d="M1439.39 635.109L1292.5 945.135L1094.61 851.375L1241.5 541.348L1439.39 635.109Z"></path><path fill="#3E3D3D" fill-rule="evenodd" d="M1449.72 631.421L1296.18 955.463L1084.28 855.062L1237.81 531.021L1449.72 631.421ZM1429.06 638.796L1245.19 551.676L1104.94 847.687L1288.81 934.808L1429.06 638.796Z" clip-rule="evenodd"></path><path fill="#fff" d="M1345.96 1002.77L814.648 2124.15L484.833 1967.88L1016.14 846.506L1345.96 1002.77Z"></path><path fill="#3E3D3D" fill-rule="evenodd" d="M1356.29 999.087L818.336 2134.47L474.506 1971.57L1012.46 836.179L1356.29 999.087ZM1335.63 1006.46L1019.83 856.834L495.161 1964.19L810.962 2113.82L1335.63 1006.46Z" clip-rule="evenodd"></path><path fill="#E5E5E5" d="M1556.05 593.458L1509.17 692.403L1152.97 523.634L1199.85 424.689L1556.05 593.458Z"></path><path fill="#3E3D3D" fill-rule="evenodd" d="M1566.38 589.771L1512.86 702.73L1142.64 527.321L1196.16 414.361L1566.38 589.771ZM1545.72 597.145L1203.54 435.016L1163.3 519.946L1505.48 682.075L1545.72 597.145Z" clip-rule="evenodd"></path><path fill="#3E3D3D" d="M955.29 1827.31L908.41 1926.26L578.594 1769.99L625.475 1671.04L955.29 1827.31Z"></path><path fill="#3E3D3D" fill-rule="evenodd" d="M965.617 1823.63L912.097 1936.59L568.267 1773.68L621.787 1660.72L965.617 1823.63ZM944.962 1831L629.162 1681.37L588.922 1766.3L904.722 1915.93L944.962 1831Z" clip-rule="evenodd"></path><path fill="#E5E5E5" d="M814.769 2124.79L662.056 2164.93L553.217 2113.36L484.953 1968.52L814.769 2124.79Z"></path><path fill="#3E3D3D" fill-rule="evenodd" d="M822.49 2125.51C822.188 2128.75 819.891 2131.46 816.74 2132.29L664.027 2172.43C662.26 2172.89 660.386 2172.72 658.736 2171.93L549.897 2120.37C548.274 2119.6 546.968 2118.29 546.203 2116.66L477.939 1971.83C476.543 1968.86 477.158 1965.34 479.476 1963.03C481.794 1960.72 485.315 1960.11 488.274 1961.51L818.089 2117.78C821.033 2119.18 822.791 2122.26 822.49 2125.51ZM792.237 2122.69L501.197 1984.8L559.047 2107.54L662.82 2156.71L792.237 2122.69Z" clip-rule="evenodd"></path><path fill="#F1F1F1" d="M661.883 2156.77L615.003 2255.71L537.229 2283.48L509.462 2205.71L556.342 2106.76L661.883 2156.77Z"></path><path fill="#3E3D3D" fill-rule="evenodd" d="M672.209 2153.08L620.633 2261.93L532.533 2293.39L501.078 2205.29L552.653 2096.43L672.209 2153.08ZM651.554 2160.45L560.028 2117.09L517.843 2206.12L541.923 2273.57L609.369 2249.49L651.554 2160.45Z" clip-rule="evenodd"></path><path fill="#3E3D3D" fill-rule="evenodd" d="M273.942 2821.06L533.347 2273.56 547.361 2280.2 287.957 2827.7 273.942 2821.06zM687.974 1837.46L902.354 1939.04 895.713 1953.05 681.333 1851.48 687.974 1837.46zM735.703 1932.77L874.225 1998.41 867.585 2012.42 729.063 1946.79 735.703 1932.77zM709.137 1988.84L847.66 2054.47 841.02 2068.49 702.497 2002.86 709.137 1988.84zM775.483 1652.77L989.863 1754.34 983.223 1768.36 768.843 1666.78 775.483 1652.77zM796.647 1804.14L935.17 1869.78 928.529 1883.79 790.007 1818.16 796.647 1804.14zM809.44 1764.43L947.963 1830.07 941.322 1844.08 802.8 1778.45 809.44 1764.43zM862.993 1468.07L1077.37 1569.65 1070.73 1583.66 856.353 1482.09 862.993 1468.07zM910.722 1563.38L1049.24 1629.01 1042.6 1643.03 904.082 1577.39 910.722 1563.38zM884.157 1619.45L1022.68 1685.08 1016.04 1699.1 877.517 1633.46 884.157 1619.45zM950.503 1283.38L1164.88 1384.95 1158.24 1398.96 943.863 1297.39 950.503 1283.38zM998.232 1378.68L1136.75 1444.32 1130.11 1458.33 991.592 1392.7 998.232 1378.68zM971.667 1434.75L1110.19 1500.38 1103.55 1514.4 965.026 1448.77 971.667 1434.75zM1038.01 1098.68L1252.39 1200.25 1245.75 1214.27 1031.37 1112.69 1038.01 1098.68zM1085.74 1193.99L1224.27 1259.62 1217.63 1273.63 1079.1 1208 1085.74 1193.99zM1059.18 1250.06L1197.7 1315.69 1191.06 1329.7 1052.54 1264.07 1059.18 1250.06zM1122.4 920.577L1336.78 1022.15 1330.14 1036.17 1115.76 934.592 1122.4 920.577zM1170.13 1015.89L1308.65 1081.52 1302.01 1095.53 1163.49 1029.9 1170.13 1015.89zM1143.56 1071.95L1282.08 1137.59 1275.44 1151.6 1136.92 1085.97 1143.56 1071.95z" clip-rule="evenodd"></path><path fill="#E5E5E5" d="M1493.51 1032.3L1471.63 1078.47L904.352 809.694L926.229 763.52L1493.51 1032.3Z"></path><path fill="#3E3D3D" fill-rule="evenodd" d="M1503.84 1028.61L1475.32 1088.8L894.024 813.381L922.542 753.192L1503.84 1028.61ZM1483.18 1035.99L929.916 773.847L914.679 806.007L1467.95 1068.15L1483.18 1035.99Z" clip-rule="evenodd"></path><path fill="#E5E5E5" d="M2109.04 1869.98H2430.2V2001.37H2109.04V1869.98Z"></path><path fill="#3E3D3D" fill-rule="evenodd" d="M2101.28 1862.23H2437.96V2009.12H2101.28V1862.23ZM2116.79 1877.74V1993.61H2422.45V1877.74H2116.79Z" clip-rule="evenodd"></path><path fill="#FAC22F" d="M2452.1 2074.36H2955.75V2811.58H2452.1V2074.36Z"></path><path fill="#fff" fill-rule="evenodd" d="M2532.25 2286.04H2651.57V2417.29H2782.81V2536.6H2651.57V2667.85H2532.25V2536.6H2401.01L2401.01 2417.29H2532.25V2286.04Z" clip-rule="evenodd"></path><path fill="#F15846" d="M2134.58 475.824C2134.58 592.731 2039.81 687.502 1922.91 687.502C1806 687.502 1711.23 592.731 1711.23 475.824C1711.23 358.917 1806 264.146 1922.91 264.146C2039.81 264.146 2134.58 358.917 2134.58 475.824Z"></path><path fill="#3E3D3D" fill-rule="evenodd" d="M83.0391 2818.88C83.0391 2814.6 86.5107 2811.13 90.7932 2811.13H2992.25C2996.53 2811.13 3000 2814.6 3000 2818.88C3000 2823.17 2996.53 2826.64 2992.25 2826.64H90.7932C86.5107 2826.64 83.0391 2823.17 83.0391 2818.88Z" clip-rule="evenodd"></path><path fill="#fff" d="M1999.55 2144.13C1999.55 2037.06 2086.34 1950.27 2193.4 1950.27H2345.84C2452.9 1950.27 2539.69 2037.06 2539.69 2144.13V2811.58H1999.55V2144.13Z"></path><path fill="#3E3D3D" fill-rule="evenodd" d="M1991.79 2144.13C1991.79 2032.78 2082.06 1942.52 2193.4 1942.52H2345.84C2457.18 1942.52 2547.45 2032.78 2547.45 2144.13V2819.34H1991.79V2144.13ZM2193.4 1958.03C2090.62 1958.03 2007.3 2041.35 2007.3 2144.13V2803.83H2531.94V2144.13C2531.94 2041.35 2448.62 1958.03 2345.84 1958.03H2193.4Z" clip-rule="evenodd"></path><path fill="#F1F1F1" d="M1999.55 2161.95H2539.69V2599.91H1999.55V2161.95Z"></path><path fill="#3E3D3D" fill-rule="evenodd" d="M1991.79 2154.2H2547.45V2607.66H1991.79V2154.2ZM2007.3 2169.71V2592.15H2531.94V2169.71H2007.3Z" clip-rule="evenodd"></path><path fill="#3E3D3D" fill-rule="evenodd" d="M2415.61 2326.64H2112.69V2311.13H2415.61V2326.64ZM2415.61 2458.03H2112.69V2442.52H2415.61V2458.03Z" clip-rule="evenodd"></path><path fill="#fff" fill-rule="evenodd" d="M1882.2 345.56H1963.61V435.116L2053.17 435.116V516.531H1963.61V606.087H1882.2V516.531H1792.64L1792.64 435.116L1882.2 435.116V345.56Z" clip-rule="evenodd"></path><path fill="#FAC22F" fill-rule="evenodd" d="M548.367 578.013H625.922V663.324H711.23V740.878H625.922V826.188H548.367V740.878H463.056L463.056 663.324H548.367V578.013Z" clip-rule="evenodd"></path><path fill="#F1F1F1" d="M424.934 1294.84C386.78 1309.2 386.979 1353.51 388.493 1367.71L387.648 1368.23C375.653 1360.49 333.58 1337.78 306.175 1367.96C268.7 1409.23 282.384 1448.17 368.952 1483.13C438.207 1511.1 471.815 1518.15 479.962 1518.18L480.807 1517.66C484.451 1510.37 493.292 1477.19 499.503 1402.76C507.266 1309.72 478.932 1274.52 424.934 1294.84Z"></path><path fill="#E5E5E5" d="M2572.54 1472.17C2572.54 1510.47 2541.49 1541.51 2503.2 1541.51C2464.9 1541.51 2433.85 1510.47 2433.85 1472.17C2433.85 1433.87 2464.9 1402.83 2503.2 1402.83C2541.49 1402.83 2572.54 1433.87 2572.54 1472.17Z"></path><path fill="#F1F1F1" d="M922.907 296.992C922.907 335.289 891.862 366.335 853.565 366.335 815.268 366.335 784.222 335.289 784.222 296.992 784.222 258.695 815.268 227.649 853.565 227.649 891.862 227.649 922.907 258.695 922.907 296.992zM338.969 1085.31C338.969 1103.45 324.263 1118.16 306.122 1118.16 287.981 1118.16 273.275 1103.45 273.275 1085.31 273.275 1067.17 287.981 1052.47 306.122 1052.47 324.263 1052.47 338.969 1067.17 338.969 1085.31zM1047 340.788C1047 358.929 1032.29 373.635 1014.15 373.635 996.008 373.635 981.302 358.929 981.302 340.788 981.302 322.647 996.008 307.941 1014.15 307.941 1032.29 307.941 1047 322.647 1047 340.788z"></path><path fill="#FAC22F" d="M497.141 2778.36C445.986 2770.77 410.671 2723.15 418.263 2671.99V2671.99C425.855 2620.84 473.478 2585.52 524.634 2593.11L808.682 2635.27C859.837 2642.86 895.152 2690.48 887.561 2741.64V2741.64C879.969 2792.79 832.345 2828.11 781.19 2820.52L497.141 2778.36Z"></path><path fill="#F15846" d="M367.305 2449.05C401.753 2410.48 460.948 2407.13 499.52 2441.58V2441.58C538.092 2476.03 541.435 2535.22 506.987 2573.8L315.707 2787.98C281.259 2826.55 222.064 2829.89 183.492 2795.44V2795.44C144.92 2760.99 141.577 2701.8 176.025 2663.23L367.305 2449.05Z"></path><path fill="#F1F1F1" fill-rule="evenodd" d="M418.26 2671.99C410.669 2723.15 445.984 2770.77 497.139 2778.36L631.708 2798.33L665.346 2614L524.631 2593.11C473.476 2585.52 425.852 2620.84 418.26 2671.99Z" clip-rule="evenodd"></path><path fill="#F1F1F1" fill-rule="evenodd" d="M499.52 2441.58C460.948 2407.13 401.753 2410.48 367.305 2449.05L276.686 2550.52L412.23 2679.9L506.987 2573.8C541.435 2535.22 538.092 2476.03 499.52 2441.58Z" clip-rule="evenodd"></path><path fill="#3E3D3D" d="M2057.94 1812.95C2057.94 1800.1 2068.36 1789.69 2081.2 1789.69H2465.34C2478.18 1789.69 2488.6 1800.1 2488.6 1812.95V1875.92C2488.6 1888.76 2478.18 1899.18 2465.34 1899.18H2081.2C2068.36 1899.18 2057.94 1888.76 2057.94 1875.92V1812.95Z"></path><path fill="#3E3D3D" fill-rule="evenodd" d="M2050.19 1812.95C2050.19 1795.82 2064.07 1781.94 2081.2 1781.94H2465.34C2482.47 1781.94 2496.35 1795.82 2496.35 1812.95V1875.92C2496.35 1893.05 2482.47 1906.93 2465.34 1906.93H2081.2C2064.07 1906.93 2050.19 1893.05 2050.19 1875.92V1812.95ZM2081.2 1797.44C2072.64 1797.44 2065.7 1804.39 2065.7 1812.95V1875.92C2065.7 1884.48 2072.64 1891.42 2081.2 1891.42H2465.34C2473.9 1891.42 2480.84 1884.48 2480.84 1875.92V1812.95C2480.84 1804.39 2473.9 1797.44 2465.34 1797.44H2081.2Z" clip-rule="evenodd"></path><path fill="#53B3CC" d="M2505.31 824.734C2427.52 811.516 2384.62 885.797 2373.3 911.011L2371.38 911.057C2358.88 886.405 2310.7 807.393 2235.43 831.114C2132.52 863.551 2117.4 942.008 2228.03 1084.92C2316.53 1199.24 2365.84 1243.81 2379.43 1251.81L2381.35 1251.76C2394.56 1243.13 2441.71 1196.28 2524.71 1077.9C2628.45 929.926 2615.42 843.442 2505.31 824.734Z"></path><path fill="#fff" fill-rule="evenodd" d="M2334.75 933.792L2429.36 1101.04L2460.66 1022.2L2563.35 1025.19L2562.9 1040.69L2471.06 1038.01L2431.82 1136.88L2337.21 969.634L2302.88 1056.11L2181.77 1054.81L2181.94 1039.3L2292.4 1040.49L2334.75 933.792Z" clip-rule="evenodd"></path><path fill="#53B3CC" d="M1072.54 1293.34H2021.44V2811.58H1072.54V1293.34Z"></path><path fill="#3E3D3D" d="M981.302 1104.92C981.302 1092.08 991.717 1081.66 1004.56 1081.66H2082.12C2094.97 1081.66 2105.39 1092.08 2105.39 1104.92V1270.08C2105.39 1282.93 2094.97 1293.34 2082.12 1293.34H1004.56C991.717 1293.34 981.302 1282.92 981.302 1270.08V1104.92Z"></path><path fill="#F1F1F1" d="M1072.54 1621.81H2021.44V2505.02H1072.54V1621.81Z"></path><path fill="#3E3D3D" fill-rule="evenodd" d="M1817.07 1841.24H1262.32V1825.73H1817.07V1841.24ZM1817.07 2003.31H1262.32V1987.8H1817.07V2003.31ZM1817.07 2165.39H1262.32V2149.88H1817.07V2165.39ZM1817.07 2308.39H1594.44V2292.88H1817.07V2308.39Z" clip-rule="evenodd"></path></g><defs><clipPath id="clip0_101_37303"><rect width="3000" height="3000" fill="#fff"></rect></clipPath></defs></svg>