<svg xmlns="http://www.w3.org/2000/svg" viewBox="0 0 1200 1200" id="no-address-found"><g data-name="10"><path fill="#4f3cc9" d="m831.37 750.1-10.26-2.23-2.33-10.25a.8.8 0 0 0-1.56 0l-2.34 10.29-10.27 2.44a.79.79 0 0 0 0 1.55l10.26 2.24 2.33 10.24a.8.8 0 0 0 1.56 0l2.34-10.29 10.27-2.44a.79.79 0 0 0 0-1.55ZM280.37 579.1l-10.26-2.23-2.33-10.25a.8.8 0 0 0-1.56 0l-2.34 10.29-10.27 2.44a.79.79 0 0 0 0 1.55l10.26 2.24 2.33 10.24a.8.8 0 0 0 1.56 0l2.34-10.29 10.27-2.44a.79.79 0 0 0 0-1.55ZM894 821.66l-6.7-1.46-1.52-6.68a.52.52 0 0 0-1 0l-1.53 6.71-6.7 1.59a.53.53 0 0 0-.4.52.51.51 0 0 0 .41.5l6.7 1.46 1.52 6.69a.53.53 0 0 0 1 0l1.52-6.72 6.71-1.59a.52.52 0 0 0 .4-.51.52.52 0 0 0-.41-.51Z"></path><path fill="#4f3cc9" d="M612.27 274.66h6v46.37h-6z" transform="rotate(-39.7 615.362 297.86)"></path><path fill="#4f3cc9" d="M677.67 270.26h60.3v6h-60.3z" transform="rotate(-78.14 707.781 273.27)"></path><path fill="#4f3cc9" d="M766.83 339.96h39.42v6h-39.42z" transform="rotate(-34.34 786.582 342.965)"></path><ellipse cx="570.5" cy="937.75" fill="#f582ae" rx="274.5" ry="28.25"></ellipse><path fill="#4f3cc9" d="M570.5 969c-73.42 0-142.46-2.94-194.41-8.29-25.34-2.61-45.27-5.65-59.23-9.05-16.5-4-23.86-8.3-23.86-13.91s7.36-9.9 23.86-13.91c14-3.4 33.89-6.44 59.23-9.05 52-5.35 121-8.29 194.41-8.29s142.46 2.94 194.41 8.29c25.34 2.61 45.27 5.65 59.23 9.05 16.5 4 23.86 8.3 23.86 13.91s-7.36 9.9-23.86 13.91c-14 3.4-33.89 6.44-59.23 9.05C713 966.06 643.92 969 570.5 969Zm0-56.5c-72.78 0-141.3 2.9-192.95 8.17-76.85 7.84-78.54 17-78.55 17.08s1.7 9.24 78.55 17.08c51.65 5.27 120.17 8.17 193 8.17s141.3-2.9 193-8.17C840 947 842 937.92 842 937.75s-2-9.27-78.55-17.08c-51.65-5.27-120.17-8.17-192.95-8.17Z"></path><g data-name="Map mark"><path fill="#77e0b5" d="m719 372.45-35.3 31.68L692 447l-15.49 18.56a112.53 112.53 0 0 1-37.88 202.35l-30.39 40.87 35.16 135.94 128.67-143.24a214.05 214.05 0 0 0-53.08-329Z"></path><path fill="#4f3cc9" d="M641.94 850.9 605 708.15l31.9-42.9 1.1-.25a109.53 109.53 0 0 0 36.87-197l-2.71-1.87 16.68-20-8.42-43.13 38.18-34.26 1.88 1.08A217 217 0 0 1 829.15 577a215.09 215.09 0 0 1-54.85 126.48Zm-30.4-141.48L645 838.57l124.89-139.1a209.13 209.13 0 0 0 53.33-123 211.77 211.77 0 0 0-103.84-200.33L687 405.23l8.3 42.6L680.94 465a115.54 115.54 0 0 1-40.51 205.6Z"></path><path fill="#77e0b5" d="m627 407 12 42-13.84 19.82a112.49 112.49 0 1 0-20.39 204.86L578 717l46.69 132.43L570 922 398.94 695.67a213 213 0 0 1-43.19-128.92c0-118.19 95.81-214 214-214a213.17 213.17 0 0 1 89.71 19.66Z"></path><path fill="#4f3cc9" d="m570 927-2.39-3.17-171.06-226.35a217 217 0 0 1 264.17-327.79l3.77 1.74-34.14 36.38 11.93 41.74-16.22 23.23-2.38-1.35a109.49 109.49 0 1 0-19.85 199.4l7.81-2.57-30.33 49.1L628.05 850Zm-.25-571.23c-116.35 0-211 94.65-211 211a209.11 209.11 0 0 0 42.58 127.11L570 917l51.33-68.11-46.64-132.25 23.43-37.91a115.5 115.5 0 1 1 26.13-213.84l11.47-16.44-12.07-42.26 30.75-32.77a209.17 209.17 0 0 0-84.65-17.67Z"></path></g><g><path fill="#fff" d="M512 743.07s-12.89-35.45-47.27-25.78c0 0-4.29-51.56-60.15-54.79s-73.05 40.82-73.05 40.82-47.26-25.78-79.49 14c0 0-36.52 0-44 25.78Z"></path><path fill="#4f3cc9" d="M516.28 746.07H204l1.12-3.84c7.26-24.91 38.29-27.62 45.48-27.91 17.33-20.58 38.62-23.3 53.55-21.91a83.72 83.72 0 0 1 25.94 6.88 73.14 73.14 0 0 1 15-19.77c10.72-10.08 29.79-21.74 59.7-20 30.16 1.74 45.7 17.3 53.42 30a71.64 71.64 0 0 1 9.07 24c34.16-7.21 47.44 28.1 47.58 28.46Zm-303.95-6h295c-4.39-8.52-17-26.87-41.81-19.89l-3.5 1-.3-3.62a64.56 64.56 0 0 0-8.83-25.08c-10.16-16.62-26.49-25.69-48.51-27-22.2-1.28-40.73 4.84-55.05 18.21a64.12 64.12 0 0 0-15 20.71l-1.25 3.16-3-1.62a76.73 76.73 0 0 0-26.71-7.59c-19.87-1.79-36.37 5.21-49 20.81l-.9 1.11H252c-.28.02-30.48.31-39.67 19.8Z"></path><path fill="#fff" d="M955 637s-8.14-22.39-29.86-16.29c0 0-2.71-32.57-38-34.6S841 611.89 841 611.89s-29.86-16.28-50.22 8.82c0 0-23.07 0-27.82 16.29Z"></path><path fill="#4f3cc9" d="M959.32 640H759l1.12-3.84c4.64-15.91 23.77-18.1 29.26-18.4 17.83-20.76 42.08-13.22 50.26-9.8 4.08-7.41 17.62-26.58 47.71-24.85 30.45 1.76 38.35 25.12 40.26 34 17.3-3 27.28 10.73 30.25 18.88Zm-191.72-6h182.63c-3.27-5.49-10.78-14.18-24.24-10.4l-3.5 1-.3-3.63c-.11-1.21-3-30-35.18-31.86-32.59-1.88-42.76 22.84-43.18 23.89l-1.25 3.15-3-1.61c-1.13-.61-27.94-14.75-46.45 8.07l-.9 1.11h-1.43c-.16-.01-16.86.17-23.2 10.28Z"></path></g></g></svg>