<svg xmlns="http://www.w3.org/2000/svg" viewBox="0 0 32 32" id="medicine"><path fill="#00c6ff" d="M27.183,4.817h0L16.707,15.293,21.1,19.682l6.087-6.088A6.209,6.209,0,0,0,27.183,4.817Z"></path><path fill="#00c2e1" d="M18.406,4.817,12.318,10.9l4.389,4.389L27.183,4.817A6.208,6.208,0,0,0,18.406,4.817Z"></path><path fill="#004b75" d="M13.594,27.183,19.682,21.1l-4.389-4.389L4.817,27.183A6.208,6.208,0,0,0,13.594,27.183Z"></path><path fill="#004267" d="M10.9,12.318,4.817,18.406a6.209,6.209,0,0,0,0,8.777h0L15.293,16.707Z"></path><path d="M28.6,3.4a8.21,8.21,0,0,0-11.606,0L3.4,16.992A8.207,8.207,0,0,0,15.008,28.6L28.6,15.008A8.211,8.211,0,0,0,28.6,3.4ZM4.817,27.183a6.209,6.209,0,0,1,0-8.777L10.9,12.318l4.389,4.389L19.682,21.1l-6.088,6.087a6.208,6.208,0,0,1-8.777,0Zm16.279-7.5-4.389-4.389L12.318,10.9l6.088-6.087a6.208,6.208,0,0,1,8.777,0h0a6.209,6.209,0,0,1,0,8.777Z"></path></svg>