<svg xmlns="http://www.w3.org/2000/svg" viewBox="0 0 128 128" id="medicine"><circle cx="64" cy="10.8" r="2.5" fill="#4A374F"></circle><path fill="#F37C87" d="M92.2 56c0-1.1-.9-2-2-2H72.7c-.8 0-1.4.4-1.8 1.1l-.8 1.5-1.5-7.1c-.2-.9-1-1.6-2-1.6-.9 0-1.7.6-2 1.5l-3.5 14.7-2.6-19.8c-.1-.9-.9-1.7-1.8-1.7h-.1c-.9 0-1.7.6-1.9 1.4l-3.5 12.1-2.7-8.8c-.2-.8-.9-1.3-1.7-1.4-.8-.1-1.6.4-2 1.1l-3.4 7h-3.6c-1.1 0-2 .9-2 2s.9 2 2 2h4.9c.8 0 1.4-.4 1.8-1.1l1.8-3.5 3.2 10.5c.3.8 1 1.4 1.9 1.4.9 0 1.7-.6 1.9-1.5l2.7-9.4 2.8 21.1c.1 1 .9 1.7 1.9 1.7h.1c.9 0 1.7-.6 1.9-1.5l3.9-16.6.8 3.9c.2.8.9 1.5 1.7 1.6.9.1 1.7-.3 2-1.1l2.8-5.6h16.3c1.1.1 2-.8 2-1.9z"></path><g fill="#4A374F"><path d="M65.2 106.5H42.8c-1.4 0-2.5 1.1-2.5 2.5s1.1 2.5 2.5 2.5h22.4c1.4 0 2.5-1.1 2.5-2.5s-1.1-2.5-2.5-2.5zM85.2 96.5H42.8c-1.4 0-2.5 1.1-2.5 2.5s1.1 2.5 2.5 2.5h42.4c1.4 0 2.5-1.1 2.5-2.5s-1.1-2.5-2.5-2.5zM40.3 89c0 1.4 1.1 2.5 2.5 2.5h42.4c1.4 0 2.5-1.1 2.5-2.5s-1.1-2.5-2.5-2.5H42.8c-1.4 0-2.5 1.1-2.5 2.5z"></path><path d="M64 1.5c-5.1 0-9.2 4.1-9.2 9.2v4.2h-17c-9.6 0-17.5 7.9-17.5 17.5V109c0 9.6 7.9 17.5 17.5 17.5h52.4c9.6 0 17.5-7.9 17.5-17.5V32.3c0-9.6-7.9-17.5-17.5-17.5h-17v-4.2c0-5-4.1-9.1-9.2-9.1zM86.5 24v-4.2h3.7c6.9 0 12.5 5.6 12.5 12.5V109c0 6.9-5.6 12.5-12.5 12.5H37.8c-6.9 0-12.5-5.6-12.5-12.5V32.3c0-6.9 5.6-12.5 12.5-12.5h3.7V24c0 5.1 4.1 9.2 9.2 9.2h26.7c5 0 9.1-4.1 9.1-9.2zm-5-4.2V24c0 2.3-1.9 4.2-4.2 4.2H50.7c-2.3 0-4.2-1.9-4.2-4.2v-4.2h10.8c1.4 0 2.5-1.1 2.5-2.5v-6.7c0-2.3 1.9-4.2 4.2-4.2s4.2 1.9 4.2 4.2v6.7c0 1.4 1.1 2.5 2.5 2.5h10.8z"></path></g></svg>