<svg xmlns="http://www.w3.org/2000/svg" viewBox="0 0 64 64" id="prescription"><circle cx="32" cy="32" r="32" fill="#FDBE5E"></circle><path fill="#E1E6E9" d="m9.2 48.3 38.2.2c-4 0-7.3 3.3-7.3 7.3s3.3 7.3 7.3 7.3c3.9-.1 7.3-3.3 7.3-7.5V1H9.2v47.3z"></path><path fill="#183651" d="M47.5 64c-7.7 0-11.2-9.6-5.4-14.6l-32.9-.1c-.6 0-1-.4-1-1V1c0-.6.4-1 1-1h45.5c.6 0 1 .4 1 1v54.6c.1 4.7-4 8.4-8.2 8.4zm0-14.5c-1.7 0-3.2.7-4.4 1.8-1.2 1.2-1.8 2.8-1.8 4.4 0 3.4 2.8 6.2 6.2 6.3h.1c3.5-.1 6.3-3 6.3-6.5V2H10.2v45.4l37.2.2c1.4-.1 1.4 1.9.1 1.9z"></path><path fill="#FFF" d="M13.2 5h37.5v39H13.2z"></path><path fill="#4EBE9F" d="M44 62.2 9.2 48.3l38.2.2c-4 0-7.3 3.3-7.3 7.3.1 2.7 1.6 5.1 3.9 6.4z"></path><path fill="#183651" d="M43.6 63.1 8.9 49.3c-1-.4-.7-1.9.4-1.9l38.2.2c1.3 0 1.3 2 0 2-3.5 0-6.3 2.8-6.3 6.3 0 2.3 1.3 4.4 3.3 5.5.5.3.7.8.4 1.3-.2.4-.8.6-1.3.4zM14.5 49.4l25.6 10.2c-1.7-3.4-1-7.5 2-10.1l-27.6-.1zM46.2 11.3H18c-1.3 0-1.3-2 0-2h28.2c1.3 0 1.3 2 0 2zM46.2 19.3H18c-1.3 0-1.3-2 0-2h28.2c1.3 0 1.3 2 0 2zM46.2 27.2H18c-1.3 0-1.3-2 0-2h28.2c1.3 0 1.3 2 0 2z"></path><path fill="#193651" d="M17 33.1h2v2h-2zM22.8 33.1h2v2h-2zM28.6 33.1h2v2h-2z"></path><path fill="#F16050" d="M46.2 35.4h-3.4V32h-2.4v3.4h-3.3v2.3h3.3v3.4h2.4v-3.4h3.4z"></path></svg>