<svg xmlns="http://www.w3.org/2000/svg" viewBox="0 0 512 512" id="medicine-prescription"><path fill="#e9f6ff" d="m359.558 143.978 37.917 65.674V165.87l-37.917-21.892zM359.557 351.167l37.918-21.892v-43.788l-37.918 65.68zM114.45 285.487v43.788l37.919 21.892-37.919-65.68zM114.45 165.87v43.782l37.917-65.676-37.917 21.894z"></path><path fill="#c8dff5" d="m175.404 106.718-2.287-1.32-82.082 142.171 82.082 142.175 2.287-1.32-81.32-140.855 81.32-140.851zM338.81 105.398l-2.287 1.32 81.318 140.851-81.318 140.855 2.287 1.32 82.08-142.175-82.08-142.171zM198.637 346.864l-.279-.483-2.287 1.32 1.041 1.803h2.082v-2.64h-.557z"></path><path fill="#c8dff5" d="m161.393 282.353-2.287 1.32 1.32 2.287 2.286-1.32Zm7.92 13.72-2.286 1.32 1.32 2.287 2.287-1.32Zm-10.562-18.294-2.286 1.32 1.322 2.287 2.285-1.32Zm5.282 9.147-2.286 1.32 1.32 2.287 2.286-1.32Zm2.64 4.574-2.286 1.32 1.32 2.287 2.286-1.32Zm-10.561-18.294-2.287 1.32 1.32 2.287 2.287-1.32Zm-2.64-4.573-2.287 1.32 1.32 2.286 2.287-1.32Zm-5.281-9.147-2.287 1.32 1.32 2.286 2.287-1.32Zm-5.282-9.147-2.286 1.32 1.32 2.287 2.286-1.32Zm7.921 13.72-2.286 1.32 1.32 2.287 2.287-1.32Zm-5.28-9.146-2.286 1.32 1.32 2.286 2.286-1.32Zm44.887 77.747-2.287 1.32 1.321 2.287 2.286-1.32Zm-2.64-4.573-2.287 1.32 1.32 2.287 2.287-1.32Zm5.28 9.147-2.286 1.32 1.32 2.287 2.286-1.32Zm-7.92-13.72-2.288 1.32 1.32 2.287 2.287-1.32Zm10.56 18.293-2.286 1.32 1.32 2.287 2.287-1.32Zm-21.123-36.587-2.286 1.32 1.32 2.287 2.286-1.32Zm2.64 4.573-2.286 1.32 1.32 2.287 2.287-1.32Zm5.282 9.147-2.286 1.32 1.32 2.287 2.286-1.32Zm-10.562-18.293-2.287 1.32 1.32 2.287 2.287-1.32Zm7.921 13.72-2.286 1.32 1.32 2.287 2.286-1.32ZM141.59 247.086l-2.287-1.32-1.041 1.803 1.041 1.803 2.287-1.32-.279-.483.279-.483zM156.465 216.04l2.287 1.32 1.32-2.286-2.287-1.32Zm-2.64 4.573 2.286 1.32 1.32-2.286-2.285-1.32Zm7.922-13.719 2.285 1.32 1.32-2.286-2.285-1.32Zm-2.641 4.574 2.287 1.32 1.32-2.287-2.287-1.32Zm5.28-9.147 2.287 1.32 1.32-2.286-2.287-1.32Zm-23.763 41.158 2.287 1.32 1.32-2.286-2.287-1.32Zm2.64-4.573 2.287 1.32 1.32-2.286-2.287-1.32Zm7.922-13.72 2.286 1.32 1.32-2.286-2.287-1.32Zm-5.282 9.147 2.286 1.32 1.321-2.287-2.286-1.32Zm2.641-4.573 2.287 1.32 1.32-2.287-2.287-1.32Zm26.404-45.731 2.287 1.32 1.32-2.287-2.287-1.32Zm10.562-18.293 2.285 1.32 1.321-2.286-2.285-1.32Zm2.64-4.573 2.287 1.32 1.32-2.287-2.287-1.32Zm2.64-4.573 2.287 1.32 1.32-2.287-2.287-1.32Zm-7.92 13.72 2.286 1.32 1.32-2.287-2.286-1.32Zm11.882-20.58-1.32 2.286 2.285 1.321 1.32-2.286Zm-14.523 25.153 2.287 1.32 1.32-2.287-2.287-1.32Zm-7.921 13.719 2.286 1.32 1.32-2.287-2.287-1.32Zm-5.281 9.146 2.287 1.32 1.32-2.287-2.287-1.32Zm2.64-4.573 2.286 1.32 1.32-2.286-2.285-1.32Zm7.922-13.72 2.285 1.32 1.321-2.286-2.286-1.32ZM197.113 145.641l-1.042 1.803 2.287 1.32.278-.484h.558v-2.639h-2.081zM238.799 148.28h2.64v-2.64h-2.64Zm-5.28 0h2.64v-2.64h-2.64Zm10.56 0h2.641v-2.64h-2.64Zm5.281 0h2.641v-2.64h-2.64Zm-21.122 0h2.64v-2.64h-2.64Zm-21.123 0h2.64v-2.64h-2.64Zm-5.28 0h2.64v-2.64h-2.64Zm21.122 0h2.64v-2.64h-2.64Zm31.684 0h2.64v-2.64h-2.64Zm-42.245 0h2.64v-2.64h-2.64Zm5.28 0h2.64v-2.64h-2.64Zm73.93 0h2.64v-2.64h-2.64Zm5.28 0h2.64v-2.64h-2.64Zm-10.561 0h2.64v-2.64h-2.64Zm-26.404 0h2.641v-2.64h-2.64Zm47.526-2.64v2.64h2.64v-2.64Zm-5.28 2.64h2.64v-2.64h-2.64Zm-21.123 0h2.64v-2.64h-2.64Zm-10.561 0h2.64v-2.64h-2.64Zm-5.281 0h2.64v-2.64h-2.64Zm10.562 0h2.64v-2.64h-2.64ZM314.81 145.641h-2.081v2.639h.558l.278.484 2.287-1.32-1.042-1.803zM317.172 149.73l-2.287 1.32 1.32 2.287 2.287-1.32Zm26.404 45.731-2.286 1.32 1.32 2.287 2.286-1.32Zm-7.922-13.719-2.286 1.32 1.321 2.287 2.286-1.32Zm2.64 4.573-2.285 1.32 1.32 2.287 2.286-1.32Zm2.642 4.574-2.287 1.32 1.32 2.286 2.287-1.32Zm-7.921-13.72-2.287 1.32 1.32 2.287 2.286-1.32Zm-13.202-22.865-2.288 1.32 1.32 2.286 2.287-1.32Zm2.64 4.572-2.287 1.32 1.32 2.287 2.287-1.32Zm5.28 9.147-2.286 1.32 1.32 2.286 2.286-1.32Zm-2.64-4.573-2.287 1.32 1.32 2.286 2.287-1.32Zm5.281 9.146-2.287 1.32 1.32 2.286 2.287-1.32Zm31.686 54.878-2.288 1.32 1.32 2.286 2.287-1.32Zm2.64 4.573-2.287 1.32 1.32 2.286 2.287-1.32Zm-5.282-9.147-2.285 1.32 1.32 2.287 2.286-1.32Zm-13.202-22.866-2.286 1.32 1.321 2.287 2.285-1.32Zm21.125 36.586-2.287 1.32 1.32 2.286 2.287-1.32Zm2.639 4.573-2.286 1.32 1.321 2.287 2.286-1.321Zm-18.482-32.012-2.287 1.32 1.32 2.286 2.286-1.32Zm-2.642-4.573-2.285 1.32 1.32 2.287 2.286-1.321Zm7.923 13.72-2.287 1.32 1.32 2.286 2.287-1.32Zm-2.64-4.574-2.287 1.32 1.32 2.287 2.286-1.32ZM372.621 245.766l-2.287 1.32.279.483-.279.483 2.287 1.32 1.041-1.803-1.041-1.803zM333.369 312.08l2.286 1.32 1.32-2.287-2.287-1.32Zm-5.282 9.147 2.287 1.32 1.32-2.287-2.287-1.32Zm2.641-4.573 2.287 1.32 1.32-2.287-2.287-1.32Zm7.922-13.72 2.285 1.32 1.32-2.287-2.285-1.32Zm-2.64 4.572 2.284 1.32 1.321-2.286-2.285-1.32Zm-21.125 36.588 2.286 1.32 1.32-2.287-2.285-1.32Zm2.64-4.573 2.288 1.32 1.32-2.287-2.287-1.32Zm5.282-9.147 2.286 1.32 1.32-2.287-2.286-1.32Zm-2.641 4.573 2.287 1.32 1.32-2.287-2.287-1.32Zm5.28-9.146 2.287 1.32 1.32-2.287-2.285-1.32Zm21.125-36.588 2.285 1.32 1.32-2.287-2.284-1.32Zm15.842-27.44 2.287 1.32 1.32-2.287-2.287-1.32Zm-5.28 9.147 2.286 1.32 1.32-2.287-2.286-1.32Zm2.64-4.574 2.287 1.32 1.32-2.287-2.286-1.32Zm9.242-16.007-1.32 2.287 2.286 1.32 1.32-2.287Zm-3.961 6.86 2.287 1.32 1.32-2.287-2.287-1.32Zm-13.202 22.867 2.286 1.32 1.32-2.287-2.287-1.32Zm-7.922 13.72 2.287 1.32 1.32-2.286-2.287-1.32Zm10.562-18.293 2.287 1.32 1.32-2.287-2.287-1.32Zm-5.28 9.147 2.285 1.32 1.321-2.287-2.286-1.32Zm-7.922 13.72 2.286 1.32 1.32-2.287-2.286-1.32ZM313.565 346.381l-.279.483h-.557v2.64h2.082l1.041-1.803-2.287-1.32zM228.238 349.504h2.64v-2.64h-2.64Zm-5.28 0h2.64v-2.64h-2.64Zm10.561 0h2.64v-2.64h-2.64Zm15.842 0H252v-2.64h-2.64Zm-5.28 0h2.64v-2.64h-2.64Zm-5.281 0h2.64v-2.64h-2.64Zm-36.965 0h2.64v-2.64h-2.64Zm5.28 0h2.641v-2.64h-2.64Zm5.281 0h2.64v-2.64h-2.64Zm5.28 0h2.641v-2.64h-2.64Zm63.369 0h2.64v-2.64h-2.64Zm5.28 0h2.64v-2.64h-2.64Zm21.123-2.64v2.64h2.64v-2.64Zm-15.842 2.64h2.64v-2.64h-2.64Zm10.561 0h2.64v-2.64h-2.64Zm-5.28 0h2.64v-2.64h-2.64Zm-26.403 0h2.64v-2.64h-2.64Zm-5.281 0h2.64v-2.64h-2.64Zm10.561 0h2.64v-2.64h-2.64Zm-15.842 0h2.64v-2.64h-2.64Zm-5.28 0h2.64v-2.64h-2.64ZM326.825 382.176h2.64v6.908h-2.64zM317.759 386.203l2.64-.004.004 2.884-2.64.004zM309.276 382.183h2.64v6.891h-2.64zM300.212 386.201h2.64v2.878h-2.64zM291.73 382.176h2.64v6.902h-2.64zM282.67 389.083l.005-2.873 2.64.004-.006 2.873zM274.18 382.178l2.64-.004.01 6.902-2.64.004zM265.119 386.213l2.64-.004.004 2.868-2.64.004zM256.642 382.176h2.64v6.893h-2.64zM247.577 386.212l2.64-.012.012 2.878-2.64.012zM239.082 389.075l.01-6.896 2.64.004-.01 6.896zM230.031 389.077l.004-2.873 2.64.004-.004 2.873zM182.46 106.058h2.64v6.908h-2.64zM191.52 106.06l2.64-.004.005 2.883-2.64.004zM200.008 106.068h2.64v6.891h-2.64zM209.073 106.063h2.64v2.878h-2.64zM217.554 106.063h2.64v6.903h-2.64zM226.612 108.93l.004-2.874 2.64.004-.004 2.874zM234.966 106.353h2.64v6.903h-2.64zM244.006 106.426h2.64v2.869h-2.64zM252.644 106.073h2.64v6.893h-2.64zM261.697 106.064l2.64-.012.012 2.878-2.64.012zM270.194 112.957l.008-6.896 2.64.004-.008 6.896zM279.251 108.935l.004-2.873 2.64.004-.004 2.873z"></path><path fill="#6ab0e5" d="M358.832 93.236h-3.222a26.08 26.08 0 0 0-26.079 26.082v19.734h55.387v-19.734a26.08 26.08 0 0 0-26.086-26.082Z"></path><path fill="#5ba1e1" d="M337.095 108.867h-3.226c-.744 0-1.473.052-2.203.109a26.022 26.022 0 0 0-2.135 10.342v19.734h33.641v-4.1a26.08 26.08 0 0 0-26.077-26.085Z"></path><path fill="#fff" d="M355.61 93.236H174.959a26.08 26.08 0 0 0-26.079 26.082v191.624h90.71a26.086 26.086 0 0 0-26.087 26.084v5.002a26.086 26.086 0 0 0 26.086 26.085h63.902a26.081 26.081 0 0 0 26.08-26.085V153.316h-.04v-33.998a26.08 26.08 0 0 1 26.079-26.082Z"></path><path fill="#e9f6ff" d="M329.531 119.318a25.984 25.984 0 0 1 2.19-10.451H174.96a26.08 26.08 0 0 0-26.079 26.084v175.99h90.71a26.073 26.073 0 0 0-23.89 15.633l-1.65 20.77a26.088 26.088 0 0 0 25.54 20.769h63.901a26.081 26.081 0 0 0 26.08-26.085V168.947h-.04Z"></path><path fill="#def4fc" d="M239.59 310.942a26.086 26.086 0 0 0-26.087 26.084v5.002a26.086 26.086 0 0 0 26.086 26.085h63.902a26.064 26.064 0 0 0 25.715-21.935v-35.236Z"></path><path fill="#afd8f9" d="M239.59 310.942a26.086 26.086 0 0 0-26.087 26.084v5.002a26.086 26.086 0 0 0 26.086 26.085h63.902a25.999 25.999 0 0 0 21.747-11.741Z"></path><path fill="#def4fc" d="M213.503 342.028v-5.002a26.086 26.086 0 0 1 26.086-26.084H119.61a26.082 26.082 0 0 0-26.08 26.084v5.002a26.082 26.082 0 0 0 26.08 26.085h119.98a26.086 26.086 0 0 1-26.087-26.085Z"></path><path fill="#e9f6ff" d="M119.61 310.942a26.082 26.082 0 0 0-26.08 26.084v5.002a26.087 26.087 0 0 0 23.387 25.943c.91.085 1.827.142 2.754.142a29.212 29.212 0 0 0 29.21-29.207v-27.964Z"></path><path fill="#2481d7" d="M239.59 365.473a23.472 23.472 0 0 1-23.447-23.445v-5.002a23.472 23.472 0 0 1 23.446-23.444 2.64 2.64 0 0 0 0-5.28H119.61a28.755 28.755 0 0 0-28.719 28.724v5.002a28.755 28.755 0 0 0 28.72 28.725h119.98a2.64 2.64 0 0 0 0-5.28Zm-119.98 0a23.47 23.47 0 0 1-23.44-23.445v-5.002a23.47 23.47 0 0 1 23.44-23.444h103.398a28.71 28.71 0 0 0-12.145 23.444v5.002a28.71 28.71 0 0 0 12.145 23.445Z"></path><path fill="#2481d7" d="M355.61 90.596H174.959a28.753 28.753 0 0 0-28.719 28.722v191.624a2.64 2.64 0 0 0 2.64 2.64h74.128a28.71 28.71 0 0 0-12.145 23.444v5.002a28.758 28.758 0 0 0 28.726 28.725h63.902a28.755 28.755 0 0 0 28.72-28.725V153.316a2.569 2.569 0 0 0-.04-.453v-33.545a23.467 23.467 0 0 1 23.439-23.442 2.64 2.64 0 0 0 0-5.28Zm-28.719 28.722v33.998a2.57 2.57 0 0 0 .04.453v188.26a23.47 23.47 0 0 1-23.44 23.444H239.59a23.472 23.472 0 0 1-23.446-23.445v-5.002a23.472 23.472 0 0 1 23.446-23.444 2.64 2.64 0 0 0 0-5.28h-88.068V119.318a23.467 23.467 0 0 1 23.438-23.442h164.074a28.708 28.708 0 0 0-12.142 23.442Z"></path><path fill="#2481d7" d="M358.832 90.596h-3.222a28.753 28.753 0 0 0-28.719 28.722v19.734a2.64 2.64 0 0 0 2.64 2.64h55.387a2.64 2.64 0 0 0 2.64-2.64v-19.734a28.757 28.757 0 0 0-28.726-28.722Zm23.447 45.816H332.17v-17.094a23.467 23.467 0 0 1 23.439-23.442h3.222a23.47 23.47 0 0 1 23.447 23.442ZM179.837 229.914h119.506v2.64H179.837zM179.837 248.751h119.506v2.64H179.837zM179.837 267.587h119.506v2.64H179.837zM179.837 286.424h119.506v2.64H179.837zM194.85 140.88h-12.04a2.64 2.64 0 1 0 0 5.28h12.04a10.49 10.49 0 0 1 0 20.982h-12.04a2.64 2.64 0 1 0 0 5.28h12.04a15.77 15.77 0 0 0 0-31.541Z"></path><path fill="#2481d7" d="M182.81 140.88a2.64 2.64 0 0 0-2.64 2.64v44.227a2.64 2.64 0 1 0 5.28 0V143.52a2.64 2.64 0 0 0-2.64-2.64zm47.555 61.075-34.047-34.04a2.64 2.64 0 1 0-3.733 3.734l34.047 34.04a2.64 2.64 0 1 0 3.733-3.734z"></path><path fill="#2481d7" d="M231.273 172.66a2.64 2.64 0 0 0-3.734 0l-29.302 29.295a2.64 2.64 0 1 0 3.733 3.734l29.303-29.295a2.64 2.64 0 0 0 0-3.733Z"></path><path fill="#6ab0e5" d="M282.834 165.044v-11.149H265.6v11.149h-11.152v17.233H265.6v11.169h17.234v-11.169H294v-17.233h-11.166z"></path><path fill="#5ba1e1" d="M283.311 165.044h-.477v-11.149H265.6v11.149h-11.152v17.233H265.6v.48l17.711-17.713z"></path><path fill="#2481d7" d="M294 163.064h-9.186v-9.17a1.98 1.98 0 0 0-1.98-1.98H265.6a1.98 1.98 0 0 0-1.98 1.98v9.17h-9.172a1.98 1.98 0 0 0-1.98 1.98v17.233a1.98 1.98 0 0 0 1.98 1.98h9.172v9.19a1.98 1.98 0 0 0 1.98 1.98h17.234a1.98 1.98 0 0 0 1.98-1.98v-9.19H294a1.98 1.98 0 0 0 1.98-1.98v-17.233a1.98 1.98 0 0 0-1.98-1.98Zm-1.98 17.233h-9.186a1.98 1.98 0 0 0-1.98 1.98v9.19H267.58v-9.19a1.98 1.98 0 0 0-1.98-1.98h-9.172v-13.273h9.172a1.98 1.98 0 0 0 1.98-1.98v-9.17h13.274v9.17a1.98 1.98 0 0 0 1.98 1.98h9.186Z"></path><path fill="#fff" d="M391.716 268.48h-81.549a2.644 2.644 0 0 0-2.645 2.653v29.777a2.643 2.643 0 0 0 2.645 2.653h81.549a2.641 2.641 0 0 0 2.643-2.653v-29.777a2.643 2.643 0 0 0-2.643-2.652Z"></path><path fill="#def4fc" d="M391.716 281.444h-81.549a2.644 2.644 0 0 0-2.645 2.653v16.813a2.643 2.643 0 0 0 2.645 2.653h81.549a2.641 2.641 0 0 0 2.643-2.653v-16.813a2.643 2.643 0 0 0-2.643-2.653Z"></path><path fill="#5ba1e1" d="M391.204 315.213h-.938a4.934 4.934 0 0 1-4.933-4.933v-6.717H316.55v6.717a4.936 4.936 0 0 1-4.937 4.933h-.938c-12.888 0-13.47 10.452-13.47 23.343v79.868H404.66v-65.31c.006-.102.017-.2.017-.311v-14.247c0-12.891-.581-23.343-13.473-23.343Z"></path><path fill="#288de8" d="M316.55 305.81h69.321v11.837H316.55z"></path><path fill="#288de8" d="M377.112 315.213h-.608c-1.769 0-3.207-2.207-3.207-4.933v-6.717h-44.711v6.717c0 2.726-1.439 4.933-3.21 4.933h-.608c-8.379 0-8.756 10.452-8.756 23.343v79.868h69.849v-65.31c.003-.102.01-.2.01-.311v-14.247c0-12.891-.377-23.343-8.759-23.343Z"></path><path fill="#fff" d="M297.206 336.21h80.66v61.105h-80.66z"></path><path fill="#def4fc" d="M316.017 336.21q-.006 1.157-.005 2.346v58.759h61.853V336.21Z"></path><path fill="#2481d7" d="M391.716 266.5h-81.549a4.634 4.634 0 0 0-4.625 4.633v29.777a4.634 4.634 0 0 0 4.625 4.633h81.549a4.634 4.634 0 0 0 4.624-4.633v-29.777a4.633 4.633 0 0 0-4.624-4.632Zm.664 34.41a.661.661 0 0 1-.664.673h-81.549a.662.662 0 0 1-.665-.673v-29.777a.661.661 0 0 1 .665-.672h81.549a.66.66 0 0 1 .664.672Z"></path><path fill="#2481d7" d="M391.204 313.233h-.938a2.956 2.956 0 0 1-2.954-2.952v-6.718a1.98 1.98 0 0 0-1.98-1.98H316.55a1.98 1.98 0 0 0-1.98 1.98v6.718a2.958 2.958 0 0 1-2.957 2.952h-.938c-15.45 0-15.45 14.041-15.45 25.323v79.868a1.98 1.98 0 0 0 1.98 1.98H404.66a1.98 1.98 0 0 0 1.98-1.98l.003-65.271a5.24 5.24 0 0 0 .014-.35v-14.247c0-11.282 0-25.323-15.453-25.323Zm11.493 39.562-.014.22a1.643 1.643 0 0 0-.002.1v63.33H299.186v-77.889c0-15.065 1.596-21.363 11.489-21.363h.938a6.922 6.922 0 0 0 6.917-6.912v-4.738h64.823v4.738a6.92 6.92 0 0 0 6.913 6.912h.938c9.896 0 11.493 6.298 11.493 21.363Z"></path><path fill="#2481d7" d="M377.865 334.23h-80.66a1.98 1.98 0 0 0-1.98 1.98v61.105a1.98 1.98 0 0 0 1.98 1.98h80.66a1.98 1.98 0 0 0 1.98-1.98V336.21a1.98 1.98 0 0 0-1.98-1.98Zm-1.98 61.105h-76.7V338.19h76.7Z"></path><path fill="#2481d7" d="M297.206 348.271h80.22v2.64h-80.22zM297.206 359.674h80.22v2.64h-80.22zM297.206 371.077h80.22v2.64h-80.22zM297.206 382.48h80.22v2.64h-80.22z"></path><path fill="#c8dff5" d="M185.958 379.495h28.291v2.64h-28.291zM185.958 387.745H207.2v2.64h-21.242zM185.958 395.995h28.291v2.64h-28.291zM185.958 404.245H207.2v2.64h-21.242zM185.958 412.495h28.291v2.64h-28.291zM121.205 161.286a1.32 1.32 0 0 0-1.32 1.32v8.863a1.32 1.32 0 1 0 2.64 0v-8.863a1.32 1.32 0 0 0-1.32-1.32zm.013 15.663h-.01a1.32 1.32 0 0 0-1.32 1.31l-.003.54a1.32 1.32 0 0 0 1.31 1.329h.01a1.32 1.32 0 0 0 1.32-1.311l.003-.539a1.32 1.32 0 0 0-1.31-1.33z"></path><path fill="#c8dff5" d="m126.492 166.031-5.29-5.293-5.283 5.294a1.32 1.32 0 1 0 1.868 1.865l3.417-3.423 3.42 3.423a1.32 1.32 0 1 0 1.868-1.866zm-5.287-31.475a1.32 1.32 0 0 0-1.32 1.32v8.863a1.32 1.32 0 1 0 2.64 0v-8.863a1.32 1.32 0 0 0-1.32-1.32zm.013 15.663h-.01a1.32 1.32 0 0 0-1.32 1.31l-.003.54a1.32 1.32 0 0 0 1.31 1.329h.01a1.32 1.32 0 0 0 1.32-1.31l.003-.54a1.32 1.32 0 0 0-1.31-1.329z"></path><path fill="#c8dff5" d="m126.492 139.302-5.29-5.293-5.283 5.293a1.32 1.32 0 1 0 1.868 1.865l3.417-3.423 3.42 3.424a1.32 1.32 0 1 0 1.868-1.866zm-5.287-31.476a1.32 1.32 0 0 0-1.32 1.32v8.864a1.32 1.32 0 1 0 2.64 0v-8.864a1.32 1.32 0 0 0-1.32-1.32zm.013 15.664h-.01a1.32 1.32 0 0 0-1.32 1.31l-.003.54a1.32 1.32 0 0 0 1.31 1.328h.01a1.32 1.32 0 0 0 1.32-1.31l.003-.54a1.32 1.32 0 0 0-1.31-1.328z"></path><path fill="#c8dff5" d="m126.492 112.572-5.29-5.293-5.283 5.293a1.32 1.32 0 1 0 1.868 1.866l3.417-3.423 3.42 3.423a1.32 1.32 0 1 0 1.868-1.866Z"></path></svg>