<svg xmlns="http://www.w3.org/2000/svg" enable-background="new 0 0 1000 800" viewBox="0 0 1000 800" id="medical-pattern"><path fill="#0080ff" d="M492.252 402.662a2.848 2.848 0 0 0 1.234-3.837c-14.271-27.992-36.367-39.954-57.734-51.524-21.959-11.889-44.667-24.182-59.985-54.229a2.851 2.851 0 0 0-3.831-1.258 2.848 2.848 0 0 0-1.234 3.837c16.131 31.641 39.635 44.366 62.369 56.673 21.542 11.663 41.893 22.681 55.35 49.08a2.852 2.852 0 0 0 3.831 1.258z"></path><path fill="#0080ff" d="M441.592 428.447a2.847 2.847 0 0 0 1.234-3.837c-13.458-26.399-10.413-49.324-7.188-73.594 3.403-25.61 6.92-52.089-9.211-83.73a2.852 2.852 0 0 0-3.831-1.258 2.851 2.851 0 0 0-1.235 3.838c15.319 30.047 11.92 55.628 8.633 80.366-3.197 24.073-6.504 48.964 7.766 76.956a2.852 2.852 0 0 0 3.832 1.259z">
</path><path fill="#0080ff" d="m386.849 300.21 33.773-17.189a2.849 2.849 0 0 0 1.234-3.837 2.852 2.852 0 0 0-3.832-1.259l-33.773 17.19a2.848 2.848 0 0 0-1.234 3.837 2.852 2.852 0 0 0 3.832 1.258zM396.525 312.932l28.707-14.611a2.847 2.847 0 0 0 1.234-3.837 2.853 2.853 0 0 0-3.832-1.258l-28.706 14.611a2.847 2.847 0 0 0-1.234 3.836 2.85 2.85 0 0 0 3.831 1.259zM408.734 324.366l18.574-9.454a2.847 2.847 0 0 0 1.234-3.836 2.852 2.852 0 0 0-3.832-1.258l-18.574 9.454a2.848 2.848 0 0 0-1.234 3.837 2.854 2.854 0 0 0 3.832 1.257zM446.16 416.552l33.773-17.189a2.848 2.848 0 0 0 1.234-3.837 2.853 2.853 0 0 0-3.832-1.258l-33.773 17.189a2.848 2.848 0 0 0-1.234 3.837 2.854 2.854 0 0 0 3.832 1.258zM441.55 401.251l28.707-14.612a2.848 2.848 0 0 0 1.233-3.837 2.852 2.852 0 0 0-3.831-1.258l-28.707 14.611a2.848 2.848 0 0 0-1.234 3.836 2.851 2.851 0 0 0 3.832 1.26zM439.473 384.661l18.575-9.454a2.848 2.848 0 0 0 1.234-3.837 2.852 2.852 0 0 0-3.832-1.258l-18.575 9.454a2.848 2.848 0 0 0-1.234 3.837 2.854 2.854 0 0 0 3.832 1.258zM310.075 279.406l3.294-20.195-26.468 66.259a4.197 4.197 0 0 1-7.954-.49l-12.744-48.48-46.512-7.587a4.195 4.195 0 1 1 1.351-8.28l49.201 8.026a4.197 4.197 0 0 1 3.382 3.074l10.203 38.814 35.948-89.989c.793-1.988 2.957-3.047 5.018-2.487a4.195 4.195 0 0 1 3.018 4.718l-8.781 53.828 24.993 4.077c3.272-4.852 5.677-9.624 6.895-14.197l.458-.481-.301-.049c.473-1.69.867-3.418 1.156-5.192 4.203-25.765-13.277-50.059-39.042-54.262-14.732-2.403-28.975 2.291-39.264 11.56-6.81-12.059-18.823-21.036-33.555-23.439-25.765-4.203-50.059 13.277-54.262 39.042a47.731 47.731 0 0 0-.554 5.29l-.301-.049.282.576c3.811 43.077 67.888 114.27 67.888 114.27s57.909-33.17 84.878-65.502l-24.761-4.039a4.196 4.196 0 0 1-3.466-4.816zM508.64 269.676l-15.73 15.729-15.729-15.729-5.72 5.72 15.729 15.729-15.729 15.729 5.72 5.72 15.729-15.729 15.73 15.729 5.719-5.72-15.729-15.729 15.729-15.729zM508.686 407.533l36.432 23.687.035-.069c2.011.572 6.032-3.632 10.067-10.283l13.617 2.894-.59 1.177 1.995 1.297 2.581-5.144-1.995-1.297-.649 1.293-9.107-11.881c2.984-7.334 4.123-13.412 2.668-15.093l.035-.069-23.832-15.495c1.227-2.069 2.465-4.129 3.681-6.206.244-.417.486-.836.729-1.254l-.004-.002a1283.827 1283.827 0 0 0 13.099-22.961c9.053-16.282 17.806-32.825 26.091-49.77a875.47 875.47 0 0 0 6.114-12.794c2-4.296 3.969-8.62 5.898-12.976a626.144 626.144 0 0 0 5.636-13.195 487.795 487.795 0 0 0 5.31-13.463 354.672 354.672 0 0 0 4.889-13.801 278.29 278.29 0 0 0 4.32-14.247c1.311-4.846 2.491-9.793 3.448-14.891.953-5.098 1.694-10.35 2.016-15.82l.005-.084c.01-.186.017-.373.021-.56.134-6.862-4.304-11.816-9.912-11.065-.966.129-1.9.43-2.79.856l-.001-.007c-.019.009-.036.023-.055.032-.485.236-.954.514-1.408.827-.066.045-.13.093-.196.14-.458.33-.902.687-1.32 1.088l-.005.005c-.416.399-.806.837-1.177 1.297-.049.061-.1.118-.148.18-.354.452-.682.932-.986 1.434-.052.086-.101.173-.152.26-.302.52-.585 1.057-.829 1.619l-.011.029c-.238.55-.438 1.123-.616 1.706-.032.105-.066.208-.096.314a16.38 16.38 0 0 0-.391 1.761c-.019.117-.033.234-.05.351a15.862 15.862 0 0 0-.165 1.895c-.073 3.739-.462 7.749-1.075 11.854-.614 4.11-1.447 8.321-2.429 12.564-1.992 8.495-4.542 17.101-7.409 25.67a467.242 467.242 0 0 1-4.526 12.841 609.312 609.312 0 0 1-4.911 12.784 743.003 743.003 0 0 1-5.22 12.715 857.139 857.139 0 0 1-5.473 12.639c-7.452 16.802-15.449 33.399-23.777 49.801-4.167 8.2-8.421 16.352-12.757 24.446-1.282 2.394-2.586 4.769-3.882 7.152l-2.086-1.357a1.278 1.278 0 0 0-.588-.183c-.063-.006-.132.001-.2.003a2.124 2.124 0 0 0-.522.087c-.075.022-.149.04-.228.07-.238.09-.488.209-.753.369-.023.014-.044.021-.068.036a9.037 9.037 0 0 0-.922.674c-.085.07-.174.15-.261.225-.246.212-.498.445-.756.699-.1.098-.199.195-.3.299-.306.313-.619.652-.938 1.019-.044.051-.087.094-.131.146-.369.429-.747.896-1.131 1.39-.091.117-.182.242-.273.363-.3.394-.601.805-.906 1.235-.06.085-.119.159-.18.245l.005.004c-1.784 2.546-3.645 5.661-5.401 9.16-5.152 10.267-7.437 19.819-5.104 21.335zM204.779 619.558l50.295 38.204a2.128 2.128 0 0 0 2.983-.408l61.466-80.918a2.13 2.13 0 0 0-.407-2.984l-50.294-38.204a2.13 2.13 0 0 0-2.984.408l-61.466 80.918a2.129 2.129 0 0 0 .407 2.984zm63.161-79.63 46.903 35.628-58.89 77.528-46.904-35.628 58.891-77.528z"></path><path fill="#0080ff" d="M261.047 635.337a5.586 5.586 0 1 0-8.898-6.758 5.586 5.586 0 0 0 8.898 6.758zM246.292 617.115a5.586 5.586 0 1 0-6.758 8.895 5.586 5.586 0 0 0 6.758-8.895zM232.606 606.719a5.585 5.585 0 1 0-6.757 8.896 5.585 5.585 0 0 0 6.757-8.896zM272.767 610.674a5.586 5.586 0 1 0-6.758 8.895 5.586 5.586 0 0 0 6.758-8.895zM260.151 608.104a5.587 5.587 0 0 0-8.896-6.758 5.585 5.585 0 0 0 1.07 7.826 5.585 5.585 0 0 0 7.826-1.068zM246.465 597.709a5.585 5.585 0 1 0-8.895-6.757 5.585 5.585 0 0 0 8.895 6.757zM277.73 594.906a5.587 5.587 0 1 0 8.898 6.758 5.587 5.587 0 0 0-8.898-6.758zM264.044 584.51a5.585 5.585 0 1 0 8.895 6.757 5.585 5.585 0 0 0-8.895-6.757zM251.428 581.941a5.586 5.586 0 0 0 6.757-8.896 5.585 5.585 0 0 0-7.826 1.07 5.585 5.585 0 0 0 1.069 7.826zM291.589 585.895a5.586 5.586 0 1 0 6.758-8.898 5.586 5.586 0 0 0-6.758 8.898zM277.903 575.5a5.586 5.586 0 1 0-1.069-7.827 5.586 5.586 0 0 0 1.069 7.827zM264.217 565.104a5.585 5.585 0 1 0 6.757-8.895 5.585 5.585 0 0 0-6.757 8.895zM427.334 214.066l75.9-86.249s-3.939-13.315-15.768-25.198l19.8-28.032-24.887 23.449c-6.845-5.512-15.704-10.216-27.051-12.377l-75.901 86.249 13.937 12.264-11.806 13.416-6.097-5.366-9.243 10.503 32.228 28.361 9.243-10.504-6.097-5.366 11.806-13.416 13.936 12.266zm-36.283-43.657 8.219-9.339 15.645 13.768 5.148-5.85-15.645-13.768 5.009-5.692 15.646 13.768 5.148-5.85-15.646-13.768 5.01-5.692 15.645 13.768 5.148-5.85-15.645-13.768 5.009-5.692 15.645 13.768 5.148-5.851-15.645-13.767 5.009-5.693 15.645 13.768 5.148-5.85-15.645-13.768 10.271-11.672 36.292 31.938-64.268 73.031-36.291-31.939zM502.155 689.95l-108.112-24.821s-9.496 9.463-14.152 24.967l-32.901-3.933 31.347 10.359c-1.536 8.345-1.459 18.029 1.919 28.657L488.369 750l4.01-17.469 16.817 3.861-1.755 7.643 13.166 3.023 9.275-40.397-13.166-3.022-1.755 7.643-16.816-3.861 4.01-17.471zm-20.4 50.869-11.707-2.688 4.502-19.611-7.333-1.683-4.503 19.611-7.135-1.638 4.502-19.611-7.333-1.684-4.502 19.611-7.135-1.638 4.503-19.611-7.333-1.684-4.503 19.61-7.135-1.638 4.502-19.611-7.333-1.683-4.502 19.611-7.136-1.638 4.503-19.611-7.333-1.684-4.502 19.611-14.63-3.359 10.444-45.492 91.543 21.016-10.444 45.494zM562.151 663.316c-20.129 0-36.504-16.377-36.504-36.505 0-20.129 16.375-36.504 36.504-36.504 20.129 0 36.505 16.375 36.505 36.504 0 20.128-16.377 36.505-36.505 36.505zm0-62.237c-14.189 0-25.732 11.543-25.732 25.732s11.543 25.734 25.732 25.734 25.734-11.545 25.734-25.734c-.001-14.189-11.546-25.732-25.734-25.732zM590.585 504.603c-15.671 0-28.42-12.75-28.42-28.422 0-15.671 12.749-28.421 28.42-28.421 15.672 0 28.422 12.749 28.422 28.421 0 15.672-12.75 28.422-28.422 28.422zm0-48.455c-11.047 0-20.034 8.987-20.034 20.034 0 11.047 8.987 20.035 20.034 20.035 11.047 0 20.035-8.988 20.035-20.035.001-11.048-8.988-20.034-20.035-20.034zM399.477 487.069c-8.259-5.849-12.923-16.098-11.132-26.726 1.204-7.16 5.127-13.422 11.044-17.633 5.915-4.209 13.118-5.862 20.279-4.655l78.013 13.145c7.16 1.201 13.422 5.124 17.633 11.043 4.209 5.916 5.861 13.118 4.654 20.279-1.204 7.16-5.127 13.422-11.042 17.631-5.917 4.211-13.119 5.863-20.28 4.656l-78.013-13.145a26.969 26.969 0 0 1-11.156-4.595zm108.033-29.357a24.769 24.769 0 0 0-10.22-4.201l-78.014-13.145c-6.542-1.103-13.123.409-18.528 4.255-5.406 3.846-8.989 9.569-10.094 16.112-2.271 13.506 6.856 26.343 20.368 28.622l78.013 13.145c6.543 1.101 13.123-.409 18.53-4.257 5.405-3.846 8.989-9.568 10.092-16.11 1.103-6.542-.409-13.123-4.255-18.529a24.877 24.877 0 0 0-5.892-5.892z"></path><path fill="#0080ff" d="m448.483 498.046 9.033-53.615 40.165 6.77c7.16 1.201 13.422 5.124 17.633 11.043 4.209 5.916 5.861 13.118 4.654 20.279-1.204 7.16-5.127 13.422-11.042 17.631-5.917 4.211-13.119 5.863-20.28 4.656l-40.163-6.764zm10.957-50.911-8.253 48.987 37.849 6.378c6.543 1.101 13.123-.409 18.53-4.257 5.405-3.846 8.989-9.568 10.092-16.11 1.103-6.542-.409-13.123-4.255-18.529a24.704 24.704 0 0 0-16.112-10.093l-37.851-6.376z">
</path><path fill="#0080ff" d="M399.477 487.069c-8.259-5.849-12.923-16.098-11.132-26.726a27.265 27.265 0 0 1 1.831-6.22l1.903-4.423.345 4.803c.818 11.457 9.311 20.787 20.645 22.702l78.015 13.146a24.767 24.767 0 0 0 26.947-14.685l1.908-4.442.339 4.822c.153 2.182.05 4.359-.311 6.477-1.204 7.16-5.127 13.422-11.042 17.631-5.917 4.211-13.119 5.863-20.28 4.656l-78.013-13.145a26.985 26.985 0 0 1-11.155-4.596zm-8.595-27.507a27.48 27.48 0 0 0-.227 1.171c-2.271 13.506 6.856 26.343 20.368 28.622l78.013 13.145c6.543 1.101 13.123-.409 18.53-4.257 5.405-3.846 8.989-9.568 10.092-16.11.066-.391.122-.784.17-1.179-5.849 8.803-16.387 13.518-27.133 11.708l-78.015-13.147c-10.748-1.809-19.157-9.717-21.798-19.953zM612.346 728.39c-7.917.899-16.032-2.673-20.555-9.853a21.256 21.256 0 0 1-2.765-16.146 21.263 21.263 0 0 1 9.465-13.37l52.701-33.203a21.24 21.24 0 0 1 16.146-2.765 21.265 21.265 0 0 1 13.37 9.466 21.253 21.253 0 0 1 2.765 16.144 21.265 21.265 0 0 1-9.465 13.372l-52.701 33.202a21.242 21.242 0 0 1-8.961 3.153zm48.033-73.905a19.505 19.505 0 0 0-8.204 2.894l-52.701 33.203a19.434 19.434 0 0 0-8.647 12.217 19.433 19.433 0 0 0 2.525 14.755c5.751 9.121 17.843 11.871 26.972 6.122l52.701-33.203a19.43 19.43 0 0 0 8.647-12.22 19.428 19.428 0 0 0-2.525-14.753 19.434 19.434 0 0 0-12.218-8.647 19.635 19.635 0 0 0-6.55-.368z"></path><path fill="#0080ff" d="m646.878 709.129-22.819-36.218 27.134-17.093a21.24 21.24 0 0 1 16.146-2.765 21.265 21.265 0 0 1 13.37 9.466 21.253 21.253 0 0 1 2.765 16.144 21.265 21.265 0 0 1-9.465 13.372l-27.131 17.094zm-20.271-35.64 20.85 33.092 25.569-16.108a19.43 19.43 0 0 0 8.647-12.22 19.428 19.428 0 0 0-2.525-14.753 19.434 19.434 0 0 0-12.218-8.647 19.457 19.457 0 0 0-14.755 2.525l-25.568 16.111z"></path><path fill="#0080ff" d="M612.346 728.39c-7.917.899-16.032-2.673-20.555-9.853a21.47 21.47 0 0 1-2.188-4.613l-1.203-3.595 2.722 2.639c6.49 6.298 16.37 7.322 24.03 2.501l52.703-33.203a19.5 19.5 0 0 0 8.119-22.757l-1.21-3.609 2.728 2.653a21.459 21.459 0 0 1 3.215 3.966 21.253 21.253 0 0 1 2.765 16.144 21.265 21.265 0 0 1-9.465 13.372l-52.701 33.202a21.234 21.234 0 0 1-8.96 3.153zm-19.475-11.643c.154.273.315.541.481.807 5.751 9.121 17.843 11.871 26.972 6.122l52.701-33.203a19.43 19.43 0 0 0 8.647-12.22 19.428 19.428 0 0 0-2.525-14.753 18.871 18.871 0 0 0-.519-.781 21.339 21.339 0 0 1-9.79 21.107l-52.703 33.203a21.33 21.33 0 0 1-23.264-.282zM346.676 139.003l-51.915 24.367a19.579 19.579 0 0 1-15.068.697 19.568 19.568 0 0 1-11.143-10.162 19.578 19.578 0 0 1-.698-15.066 19.555 19.555 0 0 1 10.162-11.144l51.916-24.367a19.579 19.579 0 0 1 15.066-.698 19.57 19.57 0 0 1 11.145 10.163c3.319 7.072 2.059 15.138-2.57 20.829a19.582 19.582 0 0 1-6.895 5.381zm-77.225.413a17.895 17.895 0 0 0 .636 13.767 17.89 17.89 0 0 0 10.184 9.285 17.892 17.892 0 0 0 13.768-.635l51.915-24.367c8.991-4.222 12.865-14.963 8.65-23.951a17.893 17.893 0 0 0-10.185-9.286 17.888 17.888 0 0 0-13.766.636l-51.915 24.367a17.955 17.955 0 0 0-6.318 4.923 18.008 18.008 0 0 0-2.969 5.261z"></path><path fill="#0080ff" d="M294.761 163.37a19.579 19.579 0 0 1-15.068.697 19.568 19.568 0 0 1-11.143-10.162 19.578 19.578 0 0 1-.698-15.066 19.555 19.555 0 0 1 10.162-11.144l26.728-12.547 16.745 35.68-26.726 12.542zm-16.024-34.139a17.91 17.91 0 0 0-9.286 10.185 17.895 17.895 0 0 0 .636 13.767 17.89 17.89 0 0 0 10.184 9.285 17.892 17.892 0 0 0 13.768-.635l25.187-11.822-15.3-32.6-25.189 11.82z"></path><path fill="#0080ff" d="m346.676 139.003-51.915 24.367a19.579 19.579 0 0 1-15.068.697 19.568 19.568 0 0 1-11.143-10.162 19.726 19.726 0 0 1-1.478-4.462l-.702-3.433 2.198 2.73a17.954 17.954 0 0 0 21.675 5.008l51.916-24.368a17.952 17.952 0 0 0 9.996-19.872l-.695-3.421 2.19 2.718a19.777 19.777 0 0 1 2.49 3.987c3.319 7.072 2.059 15.138-2.57 20.829a19.56 19.56 0 0 1-6.894 5.382zm-3.795-8.086-51.916 24.368a19.645 19.645 0 0 1-21.226-2.893c.11.267.226.53.348.79a17.89 17.89 0 0 0 10.184 9.285 17.892 17.892 0 0 0 13.768-.635l51.915-24.367c8.991-4.222 12.865-14.963 8.65-23.951a19.936 19.936 0 0 0-.387-.774 19.64 19.64 0 0 1-11.336 18.177zM540.316 547.983l-10.763 1.709-5.146-32.407a2.523 2.523 0 0 0-5.012.243l-3.546 58.192-13.156-20.246a2.526 2.526 0 0 0-2.512-1.118l-21.887 3.476-5.146-32.406a2.524 2.524 0 0 0-4.981-.025l-9.702 57.346-6.533-18.628a2.526 2.526 0 0 0-2.778-1.658l-20.772 3.299-5.146-32.406a2.525 2.525 0 0 0-2.614-2.126 2.53 2.53 0 0 0-2.397 2.368l-3.546 58.192-13.157-20.246a2.524 2.524 0 0 0-2.512-1.118l-29.62 4.704a2.525 2.525 0 0 0 .792 4.986l28.001-4.447 16.433 25.288a2.523 2.523 0 0 0 4.636-1.221l2.611-42.847 1.931 12.158a2.525 2.525 0 0 0 2.889 2.097l21.184-3.364 9.073 25.875a2.525 2.525 0 0 0 2.596 1.68 2.54 2.54 0 0 0 2.275-2.094l8.767-51.82 3.128 19.701a2.525 2.525 0 0 0 2.889 2.097l22.76-3.614 16.432 25.288a2.523 2.523 0 0 0 4.636-1.222l2.61-42.847 1.931 12.158a2.525 2.525 0 0 0 2.889 2.097l13.256-2.105-.793-4.989zM806.619 403.423c27.471-20.17 33.412-58.929 13.243-86.4-20.169-27.471-58.928-33.412-86.399-13.243-25.221 18.517-32.277 52.695-17.66 79.43a9.587 9.587 0 0 0-4.851 1.808l-67.609 49.343c-4.302 3.14-5.245 9.174-2.104 13.477l.017.022c3.144 4.283 9.164 5.216 13.459 2.082l67.609-49.344a9.59 9.59 0 0 0 3.222-4.119c21.129 21.955 55.852 25.461 81.073 6.944zm-79.597-18.239c-17.415-23.72-12.285-57.187 11.435-74.602 23.721-17.416 57.188-12.285 74.602 11.434 17.416 23.721 12.287 57.188-11.434 74.603-23.72 17.417-57.187 12.286-74.603-11.435zm79.481-32.95c4.299-10.461 3.868-20.549-5.023-24.203-2.83-1.163-6.174-1.533-9.559-1.161-9.692-.321-16.025-6.585-16.025-6.586-2.145-2.644-4.784-4.734-7.613-5.896-8.891-3.654-16.291 3.216-20.59 13.677-2.327 5.662-2.332 13.468-.437 20.019-11.49 17.09-10.076 36.676-4.355 40.426 5.48 3.592 15.859-29.137 24.159-27.561.221.047.429.108.623.187.193.08.385.182.574.305 7.01 4.716-8.625 35.285-2.203 36.584 6.548 1.324 20.778-10.933 25.043-30.396 6.565-3.166 12.867-9.217 15.406-15.395z"></path><path fill="#0080ff" d="M774.301 238.011h43.46v18.097h-43.46z" transform="rotate(-36.784 795.992 247.06)"></path><path fill="#0080ff" d="m758.815 150.331-23.606-36.362-50.361 37.65 83.377 94.539 35.549-26.576-21.41-32.978-32.446 24.256-25.837-34.561 34.734-25.968zm-64.203 7.398-5-5.787 44.683-33.404 4.198 6.386-43.881 32.805zM616.742 349.217v22.245h-22.244v8.089h22.244v22.245h8.089v-22.245h22.245v-8.089h-22.245v-22.244zM343.591 613.309v16.441H327.15v5.978h16.441v16.441h5.978v-16.441h16.44v-5.978h-16.44v-16.44zM154.101 339.358l11.625 11.625-11.625 11.625 4.228 4.228 11.625-11.625 11.625 11.625 4.228-4.228-11.626-11.625 11.626-11.625-4.228-4.227-11.625 11.625-11.625-11.625zM394.094 50v16.441l-16.44-.001v5.979h16.44v16.44h5.979l-.001-16.44h16.441v-5.978l-16.441-.001V50zM817.477 483.477c-15.672 0-28.42-12.751-28.42-28.422 0-15.671 12.749-28.42 28.42-28.42 15.671 0 28.422 12.749 28.422 28.42 0 15.672-12.751 28.422-28.422 28.422zm0-48.456c-11.047 0-20.034 8.987-20.034 20.034 0 11.047 8.987 20.035 20.034 20.035 11.047 0 20.035-8.988 20.035-20.035 0-11.046-8.988-20.034-20.035-20.034zM184.916 449.054c-7.335-.136-14.311-4.376-17.572-11.475a19.568 19.568 0 0 1-.574-15.072 19.58 19.58 0 0 1 10.253-11.061l52.112-23.943a19.559 19.559 0 0 1 15.072-.574 19.579 19.579 0 0 1 11.061 10.254 19.566 19.566 0 0 1 .574 15.069 19.576 19.576 0 0 1-10.254 11.063l-52.112 23.943a19.547 19.547 0 0 1-8.56 1.796zm52.766-61.657a17.968 17.968 0 0 0-7.838 1.651l-52.112 23.944a17.893 17.893 0 0 0-9.368 10.108 17.888 17.888 0 0 0 .524 13.772c4.148 9.02 14.854 12.99 23.88 8.844l52.112-23.943a17.893 17.893 0 0 0 9.368-10.11 17.89 17.89 0 0 0-.523-13.771 17.89 17.89 0 0 0-10.108-9.368 18.033 18.033 0 0 0-5.935-1.127z"></path><path fill="#0080ff" d="m218.761 435.643-16.456-35.814 26.83-12.326a19.559 19.559 0 0 1 15.072-.574 19.579 19.579 0 0 1 11.061 10.254 19.566 19.566 0 0 1 .574 15.069 19.576 19.576 0 0 1-10.254 11.063l-26.827 12.328zm-14.2-34.978 15.036 32.722 25.283-11.615a17.893 17.893 0 0 0 9.368-10.11 17.89 17.89 0 0 0-.523-13.771 17.89 17.89 0 0 0-10.108-9.368 17.911 17.911 0 0 0-13.772.523l-25.284 11.619z"></path><path fill="#0080ff" d="M184.916 449.054c-7.335-.136-14.311-4.376-17.572-11.475a19.752 19.752 0 0 1-1.44-4.474l-.664-3.427 2.166 2.738a17.954 17.954 0 0 0 21.632 5.184l52.114-23.943a17.956 17.956 0 0 0 10.158-19.792l-.668-3.44 2.17 2.751a19.729 19.729 0 0 1 2.456 4.008 19.566 19.566 0 0 1 .574 15.069 19.576 19.576 0 0 1-10.254 11.063l-52.112 23.943a19.56 19.56 0 0 1-8.56 1.795zm-16.37-12.978c.108.267.222.531.342.795 4.148 9.02 14.854 12.99 23.88 8.844l52.112-23.943a17.893 17.893 0 0 0 9.368-10.11 17.89 17.89 0 0 0-.523-13.771c-.12-.261-.246-.519-.379-.775a19.648 19.648 0 0 1-11.485 18.084l-52.114 23.943a19.64 19.64 0 0 1-21.201-3.067zM437.132 623.206c-3.449-4.658-4.156-11.068-1.283-16.531a15.465 15.465 0 0 1 9.159-7.622 15.466 15.466 0 0 1 11.866 1.09l40.101 21.089a15.45 15.45 0 0 1 7.622 9.159 15.47 15.47 0 0 1-1.09 11.866 15.458 15.458 0 0 1-9.158 7.621 15.463 15.463 0 0 1-11.867-1.09L442.38 627.7a15.471 15.471 0 0 1-5.248-4.494zm64.028 3.325a14.188 14.188 0 0 0-4.81-4.111l-40.101-21.089a14.137 14.137 0 0 0-10.842-.995 14.138 14.138 0 0 0-8.37 6.964c-3.648 6.943-.976 15.559 5.97 19.213l40.101 21.089a14.137 14.137 0 0 0 10.844.994c3.628-1.127 6.6-3.6 8.369-6.963a14.132 14.132 0 0 0 .995-10.842 14.276 14.276 0 0 0-2.156-4.26z"></path><path fill="#0080ff" d="m461.837 637.933 14.493-27.56 20.645 10.859a15.45 15.45 0 0 1 7.622 9.159 15.47 15.47 0 0 1-1.09 11.866 15.458 15.458 0 0 1-9.158 7.621 15.463 15.463 0 0 1-11.867-1.09l-20.645-10.855zm15.057-25.745-13.242 25.181 19.455 10.232a14.137 14.137 0 0 0 10.844.994c3.628-1.127 6.6-3.6 8.369-6.963a14.132 14.132 0 0 0 .995-10.842 14.15 14.15 0 0 0-6.964-8.37l-19.457-10.232z"></path><path fill="#0080ff" d="M437.132 623.206c-3.449-4.658-4.156-11.068-1.283-16.531a15.639 15.639 0 0 1 2.107-3.057l1.826-2.067-.67 2.675a14.182 14.182 0 0 0 7.178 16.041l40.102 21.09a14.185 14.185 0 0 0 17.286-3.177l1.832-2.077-.677 2.684a15.555 15.555 0 0 1-1.326 3.469 15.458 15.458 0 0 1-9.158 7.621 15.463 15.463 0 0 1-11.867-1.09L442.38 627.7a15.471 15.471 0 0 1-5.248-4.494zm.237-16.503c-.115.197-.225.396-.333.597-3.648 6.943-.976 15.559 5.97 19.213l40.101 21.089a14.137 14.137 0 0 0 10.844.994c3.628-1.127 6.6-3.6 8.369-6.963.106-.201.207-.404.303-.611a15.524 15.524 0 0 1-16.856 1.524l-40.102-21.091a15.52 15.52 0 0 1-8.296-14.752zM488.522 183.552c-1.476-7.187 1.132-14.922 7.343-19.661a19.573 19.573 0 0 1 14.579-3.864 19.577 19.577 0 0 1 13.04 7.579l34.785 45.595a19.555 19.555 0 0 1 3.864 14.579 19.578 19.578 0 0 1-7.58 13.04 19.57 19.57 0 0 1-14.577 3.864 19.577 19.577 0 0 1-13.042-7.579l-34.786-45.595a19.615 19.615 0 0 1-3.626-7.958zm71.726 37.965a17.966 17.966 0 0 0-3.329-7.286l-34.785-45.595a17.897 17.897 0 0 0-11.915-6.924 17.892 17.892 0 0 0-13.323 3.53c-7.891 6.024-9.418 17.34-3.394 25.238l34.786 45.595a17.893 17.893 0 0 0 11.917 6.924 17.89 17.89 0 0 0 13.321-3.53 17.895 17.895 0 0 0 6.924-11.915 18.057 18.057 0 0 0-.202-6.037z"></path><path fill="#0080ff" d="m509.027 213.633 31.335-23.908 17.908 23.476a19.555 19.555 0 0 1 3.864 14.579 19.578 19.578 0 0 1-7.58 13.04 19.57 19.57 0 0 1-14.577 3.864 19.577 19.577 0 0 1-13.042-7.579l-17.908-23.472zm31.014-21.523-28.63 21.843 16.876 22.122a17.893 17.893 0 0 0 11.917 6.924 17.89 17.89 0 0 0 13.321-3.53 17.895 17.895 0 0 0 6.924-11.915 17.905 17.905 0 0 0-3.531-13.323l-16.877-22.121z"></path><path fill="#0080ff" d="M488.522 183.552c-1.476-7.187 1.132-14.922 7.343-19.661a19.837 19.837 0 0 1 4.05-2.385l3.199-1.399-2.197 2.714a17.954 17.954 0 0 0-.315 22.242l34.786 45.597a17.954 17.954 0 0 0 21.537 5.572l3.21-1.406-2.209 2.721a19.737 19.737 0 0 1-3.372 3.275 19.57 19.57 0 0 1-14.577 3.864 19.577 19.577 0 0 1-13.042-7.579l-34.786-45.595a19.624 19.624 0 0 1-3.627-7.96zm9.074-18.818c-.237.164-.47.334-.701.508-7.891 6.024-9.418 17.34-3.394 25.238l34.786 45.595a17.893 17.893 0 0 0 11.917 6.924 17.89 17.89 0 0 0 13.321-3.53c.228-.174.453-.354.673-.54a19.647 19.647 0 0 1-20.162-7.241l-34.785-45.597a19.64 19.64 0 0 1-1.655-21.357zM681.371 475.666c-13.507 10.91-19.757 27.465-18.124 43.54-15.373-4.976-32.871-2.346-46.378 8.565-21.26 17.174-23.479 47.448-6.305 68.707 29.825 36.921 142.167 36.457 142.167 36.457s31.11-106.931-2.864-148.988c-17.174-21.26-47.237-25.456-68.496-8.281zm48.153 80.624-13.309 10.751 10.751 13.308-17.34 14.008-10.751-13.309-13.308 10.751-14.007-17.34 13.308-10.751-10.751-13.308 17.34-14.008 10.751 13.308 13.309-10.751 14.007 17.341zM173.744 513.128c0-16.286 13.251-29.535 29.536-29.535 16.286 0 29.535 13.249 29.535 29.535s-13.249 29.536-29.535 29.536-29.536-13.25-29.536-29.536zm8.715 0c0 11.48 9.341 20.821 20.821 20.821 11.48 0 20.82-9.341 20.82-20.821 0-11.48-9.34-20.82-20.82-20.82s-20.821 9.34-20.821 20.82zM788.152 534.345l15.729 15.73 15.73-15.73 5.719 5.72-15.729 15.729 15.729 15.73-5.719 5.72-15.73-15.73-15.729 15.73-5.72-5.72 15.73-15.73-15.73-15.729zM679.854 197.834l-67.316 69.095a2.021 2.021 0 0 0 .037 2.858l42.945 41.84a2.02 2.02 0 0 0 2.858-.038l67.316-69.095c.779-.8.762-2.079-.037-2.858l-42.946-41.84a2.021 2.021 0 0 0-2.857.038zm1.485 4.269 40.05 39.019-64.495 66.199-40.05-39.019 64.495-66.199z"></path><path fill="#0080ff" d="M705.446 248.402a5.303 5.303 0 0 1-7.596-7.4 5.303 5.303 0 0 1 7.596 7.4zM686.262 237.115a5.302 5.302 0 1 1 7.399-7.595 5.302 5.302 0 0 1-7.399 7.595zM674.576 225.73a5.303 5.303 0 1 1 7.403-7.596 5.303 5.303 0 0 1-7.403 7.596zM683.941 262.876a5.302 5.302 0 1 1 7.4-7.596 5.302 5.302 0 0 1-7.4 7.596zM679.753 251.394a5.303 5.303 0 1 1-7.596-7.403 5.303 5.303 0 0 1 7.596 7.403zM668.068 240.008a5.302 5.302 0 1 1-7.596-7.4 5.302 5.302 0 0 1 7.596 7.4zM669.837 269.755a5.302 5.302 0 1 1 7.596 7.4 5.302 5.302 0 0 1-7.596-7.4zM658.151 258.37a5.302 5.302 0 1 1 7.596 7.4 5.302 5.302 0 0 1-7.596-7.4zM653.963 246.887a5.302 5.302 0 1 1-7.4 7.596 5.302 5.302 0 0 1 7.4-7.596zM663.328 284.034a5.301 5.301 0 1 1-7.4 7.596 5.303 5.303 0 0 1 7.4-7.596zM651.643 272.649a5.303 5.303 0 1 1-7.403 7.596 5.303 5.303 0 0 1 7.403-7.596zM639.957 261.264a5.303 5.303 0 1 1-7.403 7.596 5.303 5.303 0 0 1 7.403-7.596zM360.849 526.072l-123.573-49.9a2.683 2.683 0 0 1-1.636-2.033 2.713 2.713 0 0 1 .857-2.477l81.279-73.221 16.172-40.134a2.688 2.688 0 0 1 3.497-1.499l34.004 13.731a2.693 2.693 0 0 1 1.479 3.509l-16.172 40.134 7.779 109.184c.066.93-.35 1.828-1.1 2.379a2.673 2.673 0 0 1-2.586.327zm-53.547-27.446 51.57 20.825-7.516-105.489c-.03-.412.036-.824.19-1.208l15.398-38.212-29.028-11.722-15.398 38.212a2.708 2.708 0 0 1-.699 1.001l-78.53 70.744 64.013 25.849z"></path><path fill="#0080ff" d="m344.988 431.421-15.343-6.195-15.343-6.196-57.412 51.544 46.858 18.921 46.857 18.922zM378.046 373.314c-1.645 4.082-6.35 6.066-10.455 4.408l-32.345-13.061c-4.105-1.658-6.117-6.354-4.472-10.437 1.645-4.083 6.349-6.066 10.455-4.409l32.345 13.061c4.103 1.659 6.116 6.356 4.472 10.438zM547.951 94.393c0-23.899 19.444-43.341 43.343-43.341 23.899 0 43.341 19.442 43.341 43.341s-19.442 43.343-43.341 43.343-43.343-19.444-43.343-43.343zm12.789 0c0 16.846 13.707 30.554 30.554 30.554 16.847 0 30.551-13.707 30.551-30.554 0-16.847-13.705-30.552-30.551-30.552-16.847 0-30.554 13.705-30.554 30.552z"></path></svg>